<svg width="40" height="40" viewBox="0 0 40 40" fill="none" xmlns="http://www.w3.org/2000/svg">
<path d="M20 0.000488281C16.0444 0.000488281 12.1776 1.17347 8.8886 3.3711C5.59962 5.56872 3.03617 8.6923 1.52242 12.3468C0.00866569 16.0013 -0.387401 20.0227 0.384303 23.9023C1.15601 27.7819 3.06082 31.3456 5.85787 34.1426C8.65492 36.9397 12.2186 38.8445 16.0982 39.6162C19.9778 40.3879 23.9992 39.9918 27.6537 38.4781C31.3082 36.9643 34.4318 34.4009 36.6294 31.1119C38.827 27.8229 40 23.9561 40 20.0005C40 14.6962 37.8929 9.60908 34.1421 5.85835C30.3914 2.10762 25.3043 0.000488281 20 0.000488281V0.000488281ZM14.1902 30.2318H9.31723V15.5809H14.1902V30.2318ZM11.7553 13.5737H11.7224C11.3738 13.5953 11.0245 13.5446 10.6963 13.425C10.3682 13.3054 10.0682 13.1193 9.81528 12.8785C9.56232 12.6376 9.36177 12.3472 9.22619 12.0253C9.0906 11.7034 9.02289 11.357 9.02728 11.0078C9.03168 10.6585 9.10809 10.314 9.25174 9.9956C9.39539 9.67723 9.60318 9.39193 9.86213 9.15754C10.1211 8.92315 10.4256 8.7447 10.7566 8.63337C11.0877 8.52204 11.4382 8.48022 11.7861 8.51051C12.1359 8.4846 12.4872 8.53139 12.8179 8.64795C13.1487 8.7645 13.4517 8.9483 13.708 9.18775C13.9642 9.4272 14.1681 9.71712 14.3067 10.0392C14.4454 10.3614 14.5158 10.7087 14.5136 11.0594C14.5114 11.4101 14.4366 11.7565 14.2939 12.0769C14.1512 12.3972 13.9437 12.6846 13.6845 12.9208C13.4252 13.157 13.1199 13.3369 12.7877 13.4493C12.4555 13.5617 12.1036 13.6041 11.7542 13.5737H11.7553ZM31.7522 30.2318H26.8812V22.3953C26.8812 20.4252 26.1758 19.0812 24.4134 19.0812C23.8642 19.0846 23.3294 19.2575 22.8821 19.5762C22.4349 19.895 22.097 20.3441 21.9147 20.8622C21.7898 21.2455 21.7355 21.6482 21.7542 22.0509V30.2318H16.8843C16.8843 30.2318 16.9481 16.9527 16.8843 15.5779H21.7553V17.656C22.196 16.8901 22.8382 16.2597 23.6121 15.8333C24.3861 15.4069 25.2621 15.2008 26.145 15.2375C29.3501 15.2375 31.7522 17.3321 31.7522 21.8329V30.2318Z" fill="white"/>
</svg>
