<svg width="96" height="96" viewBox="0 0 96 96" fill="none" xmlns="http://www.w3.org/2000/svg">
<path d="M84.9597 44.6799H14.5597V15.0063C14.5597 12.9999 16.4254 11.2399 18.5548 11.2399H25.9117C27.9885 11.2399 29.6605 12.9294 29.6781 14.9886C26.2461 15.8511 23.3598 19.0191 23.3598 22.363V27.0798C23.3598 28.0479 24.1518 28.8399 25.1199 28.8399H37.4397C38.4078 28.8399 39.1998 28.0479 39.1998 27.0798V22.3631C39.1998 18.9663 36.507 15.8511 33.1982 15.0063C33.1982 10.9935 29.9423 7.71991 25.9119 7.71991H18.555C14.4894 7.71991 11.0398 11.064 11.0398 15.0063V44.6799C8.13576 44.6622 5.77742 47.0207 5.75977 49.9247C5.75977 51.4383 6.39336 52.8639 7.51982 53.8671V63.0894C7.51982 70.2525 10.7055 76.395 15.8622 80.3901L12.9759 86.1277C12.5358 86.9901 12.8879 88.0461 13.7679 88.486C14.6303 88.9261 15.6863 88.5739 16.1262 87.694L18.8367 82.2908C22.3919 84.1915 26.3694 85.1771 30.3998 85.1419H65.5998C69.6302 85.1771 73.6077 84.1915 77.1629 82.2908L79.8734 87.694C80.3135 88.5565 81.3695 88.9084 82.2317 88.486C83.0942 88.0636 83.4461 86.9899 83.0237 86.1277L80.1374 80.3725C85.2941 76.3948 88.4798 70.2349 88.4798 63.0717V53.8494C89.5886 52.8814 90.2398 51.4557 90.2398 49.9599C90.2397 47.0384 87.8813 44.6799 84.9597 44.6799ZM31.4382 18.2799C33.5325 18.2799 35.6798 20.3391 35.6798 22.3631V25.3199H26.8797V22.3631C26.8797 20.4096 29.2557 18.2799 31.4382 18.2799ZM84.9597 63.0896C84.9597 73.6672 76.6349 81.64 65.5998 81.64H30.3997C19.3645 81.6398 11.0398 73.667 11.0398 63.0896V55.24H84.9597V63.0896ZM84.9597 51.7199H11.0926C10.2126 51.7199 9.42062 51.0863 9.29736 50.2239C9.13896 49.1327 9.98376 48.1998 11.0398 48.1998H84.9069C85.7868 48.1998 86.5788 48.8334 86.7021 49.6959C86.8605 50.7872 86.0157 51.7199 84.9597 51.7199Z" fill="#010B19"/>
</svg>
