<svg width="96" height="96" viewBox="0 0 96 96" fill="none" xmlns="http://www.w3.org/2000/svg">
<path d="M93 64.5H91.5V52.5C91.4979 50.9093 90.8651 49.3844 89.7403 48.2597C88.6156 47.1349 87.0907 46.5021 85.5 46.5V21C85.4979 19.4093 84.8651 17.8844 83.7403 16.7597C82.6156 15.6349 81.0907 15.0021 79.5 15H16.5C14.9093 15.0021 13.3844 15.6349 12.2597 16.7597C11.1349 17.8844 10.5021 19.4093 10.5 21V46.5C8.90934 46.5021 7.38443 47.1349 6.25966 48.2597C5.13489 49.3844 4.50208 50.9093 4.5 52.5V64.5H3C2.60218 64.5 2.22064 64.658 1.93934 64.9393C1.65804 65.2206 1.5 65.6022 1.5 66V72C1.5 72.3978 1.65804 72.7794 1.93934 73.0607C2.22064 73.342 2.60218 73.5 3 73.5H4.5V79.5C4.5 79.8978 4.65804 80.2794 4.93934 80.5607C5.22064 80.842 5.60218 81 6 81H10.5C10.8467 81.0002 11.1827 80.8801 11.4507 80.6602C11.7188 80.4404 11.9023 80.1344 11.97 79.7944L13.23 73.5H82.77L84.03 79.7944C84.0977 80.1344 84.2812 80.4404 84.5493 80.6602C84.8173 80.8801 85.1533 81.0002 85.5 81H90C90.3978 81 90.7794 80.842 91.0607 80.5607C91.342 80.2794 91.5 79.8978 91.5 79.5V73.5H93C93.3978 73.5 93.7794 73.342 94.0607 73.0607C94.342 72.7794 94.5 72.3978 94.5 72V66C94.5 65.6022 94.342 65.2206 94.0607 64.9393C93.7794 64.658 93.3978 64.5 93 64.5ZM13.5 21C13.501 20.2047 13.8174 19.4422 14.3798 18.8798C14.9422 18.3174 15.7047 18.001 16.5 18H79.5C80.2953 18.001 81.0578 18.3174 81.6202 18.8798C82.1826 19.4422 82.499 20.2047 82.5 21V46.5H79.5V40.5C79.4979 38.9093 78.8651 37.3844 77.7403 36.2597C76.6156 35.1349 75.0907 34.5021 73.5 34.5H55.5C53.9093 34.5021 52.3844 35.1349 51.2597 36.2597C50.1349 37.3844 49.5021 38.9093 49.5 40.5V46.5H46.5V40.5C46.4979 38.9093 45.8651 37.3844 44.7403 36.2597C43.6156 35.1349 42.0907 34.5021 40.5 34.5H22.5C20.9093 34.5021 19.3844 35.1349 18.2597 36.2597C17.1349 37.3844 16.5021 38.9093 16.5 40.5V46.5H13.5V21ZM76.5 40.5V46.5H52.5V40.5C52.501 39.7047 52.8174 38.9422 53.3798 38.3798C53.9422 37.8174 54.7047 37.501 55.5 37.5H73.5C74.2953 37.501 75.0578 37.8174 75.6202 38.3798C76.1826 38.9422 76.499 39.7047 76.5 40.5ZM43.5 40.5V46.5H19.5V40.5C19.501 39.7047 19.8174 38.9422 20.3798 38.3798C20.9422 37.8174 21.7047 37.501 22.5 37.5H40.5C41.2953 37.501 42.0578 37.8174 42.6202 38.3798C43.1826 38.9422 43.499 39.7047 43.5 40.5ZM7.5 52.5C7.50104 51.7047 7.81745 50.9422 8.37983 50.3798C8.94221 49.8174 9.70467 49.501 10.5 49.5H85.5C86.2953 49.501 87.0578 49.8174 87.6202 50.3798C88.1826 50.9422 88.499 51.7047 88.5 52.5V64.5H7.5V52.5ZM9.27 78H7.5V73.5H10.17L9.27 78ZM88.5 78H86.73L85.83 73.5H88.5V78ZM91.5 70.5H4.5V67.5H91.5V70.5Z" fill="#010B19"/>
</svg>
