<svg width="40" height="40" viewBox="0 0 40 40" fill="none" xmlns="http://www.w3.org/2000/svg">
<path d="M25.5897 11.2379H14.4103C13.9851 11.2351 13.5636 11.3169 13.1703 11.4783C12.7769 11.6398 12.4196 11.8777 12.1189 12.1784C11.8183 12.479 11.5803 12.8364 11.4189 13.2297C11.2574 13.6231 11.1757 14.0446 11.1784 14.4697V25.6492C11.1757 26.0744 11.2574 26.4958 11.4189 26.8892C11.5803 27.2825 11.8183 27.6399 12.1189 27.9405C12.4196 28.2412 12.7769 28.4792 13.1703 28.6406C13.5636 28.8021 13.9851 28.8838 14.4103 28.881H25.5897C26.0149 28.8838 26.4364 28.8021 26.8297 28.6406C27.2231 28.4792 27.5804 28.2412 27.8811 27.9405C28.1817 27.6399 28.4197 27.2825 28.5812 26.8892C28.7426 26.4958 28.8243 26.0744 28.8216 25.6492V14.4697C28.8243 14.0446 28.7426 13.6231 28.5812 13.2297C28.4197 12.8364 28.1817 12.479 27.8811 12.1784C27.5804 11.8777 27.2231 11.6398 26.8297 11.4783C26.4364 11.3169 26.0149 11.2351 25.5897 11.2379ZM19.9733 25.861C18.8205 25.861 17.6937 25.5192 16.7353 24.8788C15.7768 24.2383 15.0298 23.3281 14.5886 22.2631C14.1475 21.1981 14.0321 20.0263 14.257 18.8957C14.4819 17.7651 15.037 16.7266 15.8521 15.9115C16.6672 15.0964 17.7057 14.5413 18.8362 14.3164C19.9668 14.0915 21.1387 14.207 22.2037 14.6481C23.2686 15.0892 24.1789 15.8362 24.8193 16.7947C25.4597 17.7532 25.8016 18.88 25.8016 20.0327C25.8039 20.7987 25.6547 21.5577 25.3626 22.2658C25.0705 22.974 24.6413 23.6174 24.0996 24.1591C23.558 24.7007 22.9145 25.13 22.2064 25.422C21.4982 25.7141 20.7393 25.8633 19.9733 25.861V25.861ZM26.0134 15.4229C25.7409 15.4229 25.4745 15.3421 25.2479 15.1907C25.0213 15.0393 24.8447 14.8241 24.7404 14.5724C24.6361 14.3206 24.6088 14.0435 24.662 13.7762C24.7151 13.509 24.8464 13.2634 25.0391 13.0707C25.2318 12.878 25.4773 12.7468 25.7446 12.6936C26.0118 12.6405 26.2889 12.6678 26.5407 12.7721C26.7924 12.8763 27.0076 13.0529 27.159 13.2795C27.3105 13.5061 27.3913 13.7725 27.3913 14.0451C27.3926 14.2264 27.3579 14.4062 27.2892 14.574C27.2204 14.7418 27.119 14.8942 26.9907 15.0224C26.8625 15.1506 26.7101 15.2521 26.5423 15.3209C26.3745 15.3896 26.1947 15.4243 26.0134 15.4229Z" fill="white"/>
<path d="M19.9712 16.6909C19.3111 16.6909 18.6657 16.8867 18.1168 17.2535C17.5679 17.6202 17.1401 18.1415 16.8875 18.7514C16.6349 19.3613 16.5688 20.0324 16.6976 20.6799C16.8263 21.3274 17.1442 21.9221 17.611 22.3889C18.0778 22.8557 18.6726 23.1736 19.32 23.3024C19.9675 23.4312 20.6386 23.3651 21.2485 23.1124C21.8584 22.8598 22.3797 22.432 22.7465 21.8831C23.1132 21.3342 23.309 20.6889 23.309 20.0287C23.3108 19.5899 23.2256 19.1551 23.0585 18.7493C22.8914 18.3436 22.6456 17.9749 22.3353 17.6646C22.025 17.3543 21.6564 17.1085 21.2506 16.9414C20.8449 16.7743 20.41 16.6892 19.9712 16.6909V16.6909Z" fill="white"/>
<path d="M19.9722 9.58408e-06C16.0166 0.00550449 12.1514 1.18385 8.86552 3.38605C5.57959 5.58824 3.02048 8.71537 1.51181 12.372C0.00313193 16.0286 -0.38735 20.0505 0.389739 23.929C1.16683 27.8076 3.07659 31.3686 5.87752 34.1617C8.67845 36.9549 12.2447 38.8548 16.1254 39.6211C20.0061 40.3874 24.0269 39.9858 27.6793 38.4669C31.3317 36.9481 34.4517 34.3803 36.6448 31.0883C38.8379 27.7963 40.0055 23.9279 40 19.9722C39.9905 14.6686 37.8756 9.5857 34.1201 5.84065C30.3646 2.0956 25.2759 -0.00517782 19.9722 9.58408e-06V9.58408e-06ZM31.9887 26.0082C31.986 27.6235 31.3431 29.1719 30.2009 30.314C29.0587 31.4562 27.5104 32.0991 25.8951 32.1018H14.0483C12.433 32.0991 10.8847 31.4562 9.74251 30.314C8.60034 29.1719 7.95746 27.6235 7.95475 26.0082V14.1049C7.95746 12.4896 8.60034 10.9413 9.74251 9.79909C10.8847 8.65691 12.433 8.01404 14.0483 8.01132H25.9517C27.5669 8.01404 29.1153 8.65691 30.2575 9.79909C31.3996 10.9413 32.0425 12.4896 32.0452 14.1049V26.0082H31.9887Z" fill="white"/>
</svg>
