<svg width="40" height="40" viewBox="0 0 40 40" fill="none" xmlns="http://www.w3.org/2000/svg">
<path d="M20.1414 0.00050009C16.1858 -0.027467 12.3108 1.11817 9.00634 3.29254C5.70188 5.4669 3.11641 8.57234 1.57689 12.2161C0.037368 15.8599 -0.387058 19.8784 0.357283 23.7634C1.10162 27.6484 2.9813 31.2255 5.75861 34.0422C8.53592 36.8589 12.0861 38.7888 15.9603 39.5878C19.8344 40.3867 23.8585 40.019 27.5236 38.5309C31.1887 37.0429 34.3302 34.5014 36.5509 31.2279C38.7716 27.9544 39.9718 24.0959 39.9995 20.1403C40.02 17.5135 39.5223 14.9084 38.5351 12.474C37.5478 10.0397 36.0903 7.82388 34.246 5.95333C32.4016 4.08278 30.2065 2.59421 27.7863 1.57277C25.3661 0.551321 22.7683 0.0170448 20.1414 0.00050009V0.00050009ZM24.6543 20.0283H21.7208L21.6642 30.8596H17.6027L17.6593 20.0283H14.9509V16.304H17.6593V14.1036C17.6593 11.057 18.5055 9.19591 22.1156 9.25144H25.1057V12.9746H23.2395C21.8287 12.9746 21.7722 13.4826 21.7722 14.4419V16.304H25.1005L24.6543 20.0283Z" fill="white"/>
</svg>
