<svg width="96" height="96" viewBox="0 0 96 96" fill="none" xmlns="http://www.w3.org/2000/svg">
<path d="M37.66 59.5519H73.8507C74.52 59.5519 75.0624 59.0094 75.0624 58.3402V29.9046C75.0624 29.5329 74.8916 29.1815 74.5994 28.9519L56.504 14.7341C56.0644 14.3888 55.4462 14.3888 55.0066 14.7341L36.9113 28.9519C36.6189 29.1816 36.4482 29.5329 36.4482 29.9046V58.3402C36.4482 59.0094 36.9906 59.5519 37.66 59.5519V59.5519ZM50.5044 57.1284V38.8715H61.0062V57.1284H50.5044ZM38.8717 30.4937L55.7553 17.228L72.6389 30.4937V57.1284H63.4297V37.6598C63.4297 36.9906 62.8873 36.448 62.2179 36.448H49.2927C48.6233 36.448 48.081 36.9906 48.081 37.6598V57.1284H38.8717V30.4937Z" fill="#010B19"/>
<path d="M81.6058 57.1284C80.9364 57.1284 80.394 57.6709 80.394 58.3401C80.394 59.0093 80.9364 59.5519 81.6058 59.5519H86.7759C87.4452 59.5519 87.9876 59.0093 87.9876 58.3401C87.9876 57.6709 87.4452 57.1284 86.7759 57.1284H85.4026V16.8986H86.7759C87.4452 16.8986 87.9876 16.356 87.9876 15.6868C87.9876 15.0176 87.4452 14.4751 86.7759 14.4751H81.6058C80.9364 14.4751 80.394 15.0176 80.394 15.6868C80.394 16.356 80.9364 16.8986 81.6058 16.8986H82.9791V57.1284H81.6058Z" fill="black"/>
<path d="M88.0685 68.7611H73.8507C73.1813 68.7611 72.639 69.3037 72.639 69.9729C72.639 70.6421 73.1813 71.1846 73.8507 71.1846H86.8567V86.8565H80.2325V82.8981C80.2325 82.2289 79.6902 81.6864 79.0208 81.6864C78.3514 81.6864 77.8091 82.2289 77.8091 82.8981V86.8565H69.8923V81.6056C69.8923 80.9364 69.35 80.3939 68.6806 80.3939C68.0112 80.3939 67.4689 80.9364 67.4689 81.6056V86.8565H59.5522V82.8981C59.5522 82.2289 59.0098 81.6864 58.3404 81.6864C57.671 81.6864 57.1287 82.2289 57.1287 82.8981V86.8565H49.212V81.6056C49.212 80.9364 48.6696 80.3939 48.0002 80.3939C47.3308 80.3939 46.7885 80.9364 46.7885 81.6056V86.8565H38.8718V82.8981C38.8718 82.2289 38.3294 81.6864 37.66 81.6864C36.9907 81.6864 36.4483 82.2289 36.4483 82.8981V86.8565H28.5316V81.6056C28.5316 80.9364 27.9892 80.3939 27.3198 80.3939C26.6505 80.3939 26.1081 80.9364 26.1081 81.6056V86.8565H18.1914V82.8981C18.1914 82.2289 17.649 81.6864 16.9796 81.6864C16.3103 81.6864 15.7679 82.2289 15.7679 82.8981V86.8565H9.1437V80.2283C9.17052 80.23 9.19718 80.2323 9.22448 80.2323H13.1021C13.7714 80.2323 14.3138 79.6898 14.3138 79.0206C14.3138 78.3514 13.7714 77.8088 13.1021 77.8088H9.22448C9.19718 77.8088 9.17052 77.8111 9.1437 77.8129V69.8881C9.17052 69.8898 9.19718 69.8921 9.22448 69.8921H15.6871C16.3565 69.8921 16.8988 69.3496 16.8988 68.6804C16.8988 68.0112 16.3565 67.4686 15.6871 67.4686H9.22448C9.19718 67.4686 9.17052 67.4709 9.1437 67.4727V59.5479C9.17052 59.5496 9.19718 59.5519 9.22448 59.5519H13.1021C13.7714 59.5519 14.3138 59.0094 14.3138 58.3402C14.3138 57.671 13.7714 57.1284 13.1021 57.1284H9.22448C9.19718 57.1284 9.17052 57.1307 9.1437 57.1325V49.2077C9.17052 49.2095 9.19718 49.2117 9.22448 49.2117H15.6871C16.3565 49.2117 16.8988 48.6692 16.8988 48C16.8988 47.3308 16.3565 46.7882 15.6871 46.7882H9.22448C9.19718 46.7882 9.17052 46.7905 9.1437 46.7923V38.8675C9.17052 38.8693 9.19718 38.8715 9.22448 38.8715H13.1021C13.7714 38.8715 14.3138 38.329 14.3138 37.6598C14.3138 36.9906 13.7714 36.448 13.1021 36.448H9.22448C9.19718 36.448 9.17052 36.4503 9.1437 36.4521V28.5273C9.17052 28.5291 9.19718 28.5313 9.22448 28.5313H15.6871C16.3565 28.5313 16.8988 27.9888 16.8988 27.3196C16.8988 26.6504 16.3565 26.1078 15.6871 26.1078H9.22448C9.19718 26.1078 9.17052 26.1101 9.1437 26.1119V18.1871C9.17052 18.1889 9.19718 18.1911 9.22448 18.1911H13.1021C13.7714 18.1911 14.3138 17.6486 14.3138 16.9794C14.3138 16.3102 13.7714 15.7676 13.1021 15.7676H9.22448C9.19718 15.7676 9.17052 15.7699 9.1437 15.7717V9.14345H24.8156V69.9729C24.8156 70.6421 25.3579 71.1846 26.0273 71.1846H67.9431C68.6124 71.1846 69.1548 70.6421 69.1548 69.9729C69.1548 69.3037 68.6124 68.7611 67.9431 68.7611H27.239V7.93171C27.239 7.26251 26.6967 6.71997 26.0273 6.71997H7.93196C7.26259 6.71997 6.72021 7.26251 6.72021 7.93171V88.0682C6.72021 88.7374 7.26259 89.28 7.93196 89.28H88.0685C88.7378 89.28 89.2802 88.7374 89.2802 88.0682V69.9729C89.2802 69.3037 88.7378 68.7611 88.0685 68.7611V68.7611Z" fill="black"/>
</svg>
