<svg width="22" height="22" viewBox="0 0 22 22" fill="none" xmlns="http://www.w3.org/2000/svg">
<path d="M11 0C8.08262 0 5.28473 1.15893 3.22183 3.22183C1.15893 5.28473 0 8.08262 0 11C0 13.9174 1.15893 16.7153 3.22183 18.7782C5.28473 20.8411 8.08262 22 11 22C13.9174 22 16.7153 20.8411 18.7782 18.7782C20.8411 16.7153 22 13.9174 22 11C22 8.08262 20.8411 5.28473 18.7782 3.22183C16.7153 1.15893 13.9174 0 11 0V0ZM15.2289 14.6056C15.2289 16.4022 14.2511 18.6389 10.2667 20.35C10.6333 15.2533 7.18667 15.84 6.35556 14.2389C6.43125 13.5765 6.67244 12.9438 7.05692 12.3992C7.44139 11.8545 7.95676 11.4154 8.55556 11.1222C6.65887 10.7969 4.89002 9.95056 3.44667 8.67778C3.50778 9.25222 3.78767 9.78267 4.22889 10.1567C3.273 9.79636 2.44708 9.15776 1.85778 8.32333C2.4405 6.40004 3.60595 4.7051 5.19319 3.47252C6.78044 2.23994 8.7112 1.53052 10.7189 1.44222C9.69222 3.12889 8.88556 6.49 10.7189 8.25C8.83667 8.55556 7.65111 6.11111 6.61222 7.07667C5.23111 8.37222 7.01556 10.1444 10.7922 10.8411C14.8133 11.5622 15.2656 12.7722 15.2289 14.6056ZM16.8667 9.71667C16.4756 8.36 17.6244 6.99111 18.9322 5.87889C19.7489 7.05616 20.2689 8.41347 20.4476 9.8351C20.6264 11.2567 20.4587 12.7005 19.9589 14.0433C19.0178 11.7333 17.3067 11.2078 16.8667 9.68V9.71667Z" fill="#F2F2F2"/>
</svg>
