<svg width="96" height="96" viewBox="0 0 96 96" fill="none" xmlns="http://www.w3.org/2000/svg">
<path d="M9.05761 33.6H6.72021V7.88867C6.72021 7.57871 6.84334 7.28145 7.06252 7.06227C7.28169 6.8431 7.57895 6.71997 7.88891 6.71997H33.6002V9.05736H9.05761V33.6Z" fill="#010B19"/>
<path d="M33.6002 89.28H7.88891C7.57895 89.28 7.28169 89.1569 7.06252 88.9377C6.84334 88.7186 6.72021 88.4213 6.72021 88.1113V62.4H9.05761V86.9426H33.6002V89.28Z" fill="black"/>
<path d="M88.1112 89.28H62.3999V86.9426H86.9425V62.4H89.2799V88.1113C89.2799 88.4213 89.1568 88.7186 88.9376 88.9377C88.7184 89.1569 88.4212 89.28 88.1112 89.28Z" fill="black"/>
<path d="M89.2799 33.6H86.9425V9.05736H62.3999V6.71997H88.1112C88.4212 6.71997 88.7184 6.8431 88.9376 7.06227C89.1568 7.28145 89.2799 7.57871 89.2799 7.88867V33.6Z" fill="black"/>
<path d="M48 81.6C47.8178 81.5992 47.6382 81.5592 47.4745 81.483C47.3107 81.4068 47.167 81.2963 47.0541 81.1598C46.1446 80.0706 24.96 54.3029 24.96 36.4138C24.96 30.5754 27.3874 24.9761 31.7082 20.8477C36.0291 16.7193 41.8894 14.4 48 14.4C54.1105 14.4 59.9709 16.7193 64.2917 20.8477C68.6125 24.9761 71.04 30.5754 71.04 36.4138C71.04 54.3029 49.8553 80.0706 48.9458 81.1598C48.8329 81.2963 48.6892 81.4068 48.5255 81.483C48.3617 81.5592 48.1821 81.5992 48 81.6ZM48 16.7173C42.5326 16.7173 37.2892 18.7924 33.4231 22.4863C29.5571 26.1801 27.3852 31.19 27.3852 36.4138C27.3852 51.4759 43.8285 73.2464 48 78.5297C52.1714 73.2464 68.6147 51.4064 68.6147 36.4138C68.6147 31.19 66.4428 26.1801 62.5768 22.4863C58.7108 18.7924 53.4673 16.7173 48 16.7173V16.7173Z" fill="black"/>
<path d="M48 48C45.7215 48 43.4943 47.2962 41.5998 45.9776C39.7054 44.6591 38.2288 42.7849 37.3569 40.5922C36.485 38.3995 36.2568 35.9867 36.7013 33.6589C37.1458 31.3311 38.243 29.193 39.8541 27.5147C41.4652 25.8365 43.5179 24.6936 45.7525 24.2306C47.9872 23.7676 50.3035 24.0052 52.4085 24.9135C54.5135 25.8217 56.3127 27.3598 57.5785 29.3332C58.8443 31.3066 59.52 33.6266 59.52 36C59.52 39.1826 58.3063 42.2348 56.1459 44.4853C53.9854 46.7357 51.0553 48 48 48ZM48 26.4C46.1772 26.4 44.3954 26.963 42.8799 28.0179C41.3643 29.0728 40.183 30.5721 39.4855 32.3262C38.788 34.0804 38.6055 36.0107 38.9611 37.8729C39.3167 39.7351 40.1944 41.4456 41.4833 42.7882C42.7722 44.1308 44.4143 45.0451 46.202 45.4155C47.9898 45.786 49.8428 45.5958 51.5268 44.8692C53.2108 44.1426 54.6501 42.9122 55.6628 41.3335C56.6755 39.7548 57.216 37.8987 57.216 36C57.216 33.4539 56.245 31.0121 54.5167 29.2118C52.7883 27.4114 50.4442 26.4 48 26.4V26.4Z" fill="black"/>
</svg>
