<svg width="363" height="85" viewBox="0 0 363 85" fill="none" xmlns="http://www.w3.org/2000/svg">
<path d="M72.6914 80L67.8477 67.3438H67.7695C67.8607 68.3464 67.9062 69.5378 67.9062 70.918V80H66.373V65.7227H68.873L73.3945 77.5H73.4727L78.0332 65.7227H80.5137V80H78.8535V70.8008C78.8535 69.7461 78.8991 68.6003 78.9902 67.3633H78.9121L74.0293 80H72.6914Z" fill="#1B222D"/>
<path d="M85.8164 80H84.1953V69.2969H85.8164V80ZM84.0586 66.3965C84.0586 66.0254 84.1497 65.7552 84.332 65.5859C84.5143 65.4102 84.7422 65.3223 85.0156 65.3223C85.276 65.3223 85.5007 65.4102 85.6895 65.5859C85.8783 65.7617 85.9727 66.0319 85.9727 66.3965C85.9727 66.7611 85.8783 67.0345 85.6895 67.2168C85.5007 67.3926 85.276 67.4805 85.0156 67.4805C84.7422 67.4805 84.5143 67.3926 84.332 67.2168C84.1497 67.0345 84.0586 66.7611 84.0586 66.3965Z" fill="#1B222D"/>
<path d="M95.8359 80L95.5137 78.4766H95.4355C94.9017 79.1471 94.3678 79.6029 93.834 79.8438C93.3066 80.0781 92.6458 80.1953 91.8516 80.1953C90.7904 80.1953 89.957 79.9219 89.3516 79.375C88.7526 78.8281 88.4531 78.0501 88.4531 77.041C88.4531 74.8796 90.1816 73.7467 93.6387 73.6426L95.4551 73.584V72.9199C95.4551 72.0801 95.2728 71.4616 94.9082 71.0645C94.5501 70.6608 93.974 70.459 93.1797 70.459C92.2878 70.459 91.2786 70.7324 90.1523 71.2793L89.6543 70.0391C90.1816 69.7526 90.7578 69.528 91.3828 69.3652C92.0143 69.2025 92.6458 69.1211 93.2773 69.1211C94.5534 69.1211 95.4974 69.4043 96.1094 69.9707C96.7279 70.5371 97.0371 71.4453 97.0371 72.6953V80H95.8359ZM92.1738 78.8574C93.1829 78.8574 93.974 78.5807 94.5469 78.0273C95.1263 77.474 95.416 76.6992 95.416 75.7031V74.7363L93.7949 74.8047C92.5059 74.8503 91.5749 75.0521 91.002 75.4102C90.4355 75.7617 90.1523 76.3118 90.1523 77.0605C90.1523 77.6465 90.3281 78.0924 90.6797 78.3984C91.0378 78.7044 91.5358 78.8574 92.1738 78.8574Z" fill="#1B222D"/>
<path d="M114.029 80V73.0371C114.029 72.1842 113.847 71.5462 113.482 71.123C113.118 70.6934 112.551 70.4785 111.783 70.4785C110.774 70.4785 110.029 70.7682 109.547 71.3477C109.065 71.9271 108.824 72.819 108.824 74.0234V80H107.203V73.0371C107.203 72.1842 107.021 71.5462 106.656 71.123C106.292 70.6934 105.722 70.4785 104.947 70.4785C103.932 70.4785 103.186 70.7845 102.711 71.3965C102.242 72.002 102.008 72.998 102.008 74.3848V80H100.387V69.2969H101.705L101.969 70.7617H102.047C102.353 70.2409 102.783 69.834 103.336 69.541C103.896 69.248 104.521 69.1016 105.211 69.1016C106.884 69.1016 107.978 69.707 108.492 70.918H108.57C108.889 70.3581 109.352 69.9154 109.957 69.5898C110.562 69.2643 111.253 69.1016 112.027 69.1016C113.238 69.1016 114.143 69.4141 114.742 70.0391C115.348 70.6576 115.65 71.6504 115.65 73.0176V80H114.029Z" fill="#1B222D"/>
<path d="M120.621 80H119V69.2969H120.621V80ZM118.863 66.3965C118.863 66.0254 118.954 65.7552 119.137 65.5859C119.319 65.4102 119.547 65.3223 119.82 65.3223C120.081 65.3223 120.305 65.4102 120.494 65.5859C120.683 65.7617 120.777 66.0319 120.777 66.3965C120.777 66.7611 120.683 67.0345 120.494 67.2168C120.305 67.3926 120.081 67.4805 119.82 67.4805C119.547 67.4805 119.319 67.3926 119.137 67.2168C118.954 67.0345 118.863 66.7611 118.863 66.3965Z" fill="#1B222D"/>
<path d="M129.498 80V65.7227H131.158V78.4961H137.457V80H129.498Z" fill="#1B222D"/>
<path d="M141.168 69.2969V76.2402C141.168 77.1126 141.367 77.7637 141.764 78.1934C142.161 78.623 142.783 78.8379 143.629 78.8379C144.749 78.8379 145.566 78.5319 146.08 77.9199C146.601 77.3079 146.861 76.3086 146.861 74.9219V69.2969H148.482V80H147.145L146.91 78.5645H146.822C146.49 79.0918 146.028 79.4954 145.436 79.7754C144.85 80.0553 144.179 80.1953 143.424 80.1953C142.122 80.1953 141.145 79.8861 140.494 79.2676C139.85 78.6491 139.527 77.6595 139.527 76.2988V69.2969H141.168Z" fill="#1B222D"/>
<path d="M154.508 74.5215L150.787 69.2969H152.633L155.455 73.3984L158.268 69.2969H160.094L156.373 74.5215L160.289 80H158.453L155.455 75.6641L152.428 80H150.592L154.508 74.5215Z" fill="#1B222D"/>
<path d="M163.941 69.2969V76.2402C163.941 77.1126 164.14 77.7637 164.537 78.1934C164.934 78.623 165.556 78.8379 166.402 78.8379C167.522 78.8379 168.339 78.5319 168.854 77.9199C169.374 77.3079 169.635 76.3086 169.635 74.9219V69.2969H171.256V80H169.918L169.684 78.5645H169.596C169.264 79.0918 168.801 79.4954 168.209 79.7754C167.623 80.0553 166.952 80.1953 166.197 80.1953C164.895 80.1953 163.919 79.8861 163.268 79.2676C162.623 78.6491 162.301 77.6595 162.301 76.2988V69.2969H163.941Z" fill="#1B222D"/>
<path d="M179.586 69.1016C180.061 69.1016 180.488 69.1406 180.865 69.2188L180.641 70.7227C180.198 70.625 179.807 70.5762 179.469 70.5762C178.603 70.5762 177.861 70.9277 177.242 71.6309C176.63 72.334 176.324 73.2096 176.324 74.2578V80H174.703V69.2969H176.041L176.227 71.2793H176.305C176.702 70.5827 177.18 70.0456 177.74 69.668C178.3 69.2904 178.915 69.1016 179.586 69.1016Z" fill="#1B222D"/>
<path d="M181.168 69.2969H182.906L185.25 75.4004C185.764 76.7936 186.083 77.7995 186.207 78.418H186.285C186.37 78.0859 186.546 77.5195 186.812 76.7188C187.086 75.9115 187.971 73.4375 189.469 69.2969H191.207L186.607 81.4844C186.152 82.6888 185.618 83.5417 185.006 84.043C184.4 84.5508 183.655 84.8047 182.77 84.8047C182.275 84.8047 181.786 84.7493 181.305 84.6387V83.3398C181.663 83.418 182.063 83.457 182.506 83.457C183.619 83.457 184.413 82.832 184.889 81.582L185.484 80.0586L181.168 69.2969Z" fill="#1B222D"/>
<path d="M200.045 74.0625V80H198.385V65.7227H202.301C204.052 65.7227 205.344 66.0579 206.178 66.7285C207.018 67.3991 207.438 68.4082 207.438 69.7559C207.438 71.6439 206.48 72.9199 204.566 73.584L208.443 80H206.48L203.023 74.0625H200.045ZM200.045 72.6367H202.32C203.492 72.6367 204.352 72.4056 204.898 71.9434C205.445 71.4746 205.719 70.7747 205.719 69.8438C205.719 68.8997 205.439 68.2194 204.879 67.8027C204.326 67.3861 203.434 67.1777 202.203 67.1777H200.045V72.6367Z" fill="#1B222D"/>
<path d="M215.025 80.1953C213.443 80.1953 212.193 79.7135 211.275 78.75C210.364 77.7865 209.908 76.4486 209.908 74.7363C209.908 73.0111 210.331 71.6406 211.178 70.625C212.031 69.6094 213.173 69.1016 214.605 69.1016C215.947 69.1016 217.008 69.5443 217.789 70.4297C218.57 71.3086 218.961 72.4707 218.961 73.916V74.9414H211.588C211.62 76.1979 211.936 77.1517 212.535 77.8027C213.141 78.4538 213.99 78.7793 215.084 78.7793C216.236 78.7793 217.376 78.5384 218.502 78.0566V79.502C217.929 79.7493 217.385 79.9251 216.871 80.0293C216.363 80.14 215.748 80.1953 215.025 80.1953ZM214.586 70.459C213.727 70.459 213.04 70.7389 212.525 71.2988C212.018 71.8587 211.718 72.6335 211.627 73.623H217.223C217.223 72.6009 216.995 71.8197 216.539 71.2793C216.083 70.7324 215.432 70.459 214.586 70.459Z" fill="#1B222D"/>
<path d="M228.316 80L227.994 78.4766H227.916C227.382 79.1471 226.848 79.6029 226.314 79.8438C225.787 80.0781 225.126 80.1953 224.332 80.1953C223.271 80.1953 222.438 79.9219 221.832 79.375C221.233 78.8281 220.934 78.0501 220.934 77.041C220.934 74.8796 222.662 73.7467 226.119 73.6426L227.936 73.584V72.9199C227.936 72.0801 227.753 71.4616 227.389 71.0645C227.031 70.6608 226.454 70.459 225.66 70.459C224.768 70.459 223.759 70.7324 222.633 71.2793L222.135 70.0391C222.662 69.7526 223.238 69.528 223.863 69.3652C224.495 69.2025 225.126 69.1211 225.758 69.1211C227.034 69.1211 227.978 69.4043 228.59 69.9707C229.208 70.5371 229.518 71.4453 229.518 72.6953V80H228.316ZM224.654 78.8574C225.663 78.8574 226.454 78.5807 227.027 78.0273C227.607 77.474 227.896 76.6992 227.896 75.7031V74.7363L226.275 74.8047C224.986 74.8503 224.055 75.0521 223.482 75.4102C222.916 75.7617 222.633 76.3118 222.633 77.0605C222.633 77.6465 222.809 78.0924 223.16 78.3984C223.518 78.7044 224.016 78.8574 224.654 78.8574Z" fill="#1B222D"/>
<path d="M234.488 80H232.867V64.8047H234.488V80Z" fill="#1B222D"/>
<path d="M251.324 80H243.365V65.7227H251.324V67.1973H245.025V71.7969H250.943V73.2617H245.025V78.5156H251.324V80Z" fill="#1B222D"/>
<path d="M261.158 77.0801C261.158 78.0762 260.787 78.8444 260.045 79.3848C259.303 79.9251 258.261 80.1953 256.92 80.1953C255.501 80.1953 254.394 79.9707 253.6 79.5215V78.0176C254.114 78.278 254.664 78.4831 255.25 78.6328C255.842 78.7826 256.412 78.8574 256.959 78.8574C257.805 78.8574 258.456 78.724 258.912 78.457C259.368 78.1836 259.596 77.7702 259.596 77.2168C259.596 76.8001 259.413 76.4453 259.049 76.1523C258.691 75.8529 257.988 75.5013 256.939 75.0977C255.943 74.7266 255.234 74.4043 254.811 74.1309C254.394 73.8509 254.081 73.5352 253.873 73.1836C253.671 72.832 253.57 72.4121 253.57 71.9238C253.57 71.0514 253.925 70.3646 254.635 69.8633C255.344 69.3555 256.318 69.1016 257.555 69.1016C258.707 69.1016 259.833 69.3359 260.934 69.8047L260.357 71.123C259.283 70.6803 258.31 70.459 257.438 70.459C256.669 70.459 256.09 70.5794 255.699 70.8203C255.309 71.0612 255.113 71.3932 255.113 71.8164C255.113 72.1029 255.185 72.347 255.328 72.5488C255.478 72.7507 255.715 72.9427 256.041 73.125C256.367 73.3073 256.992 73.571 257.916 73.916C259.186 74.3783 260.042 74.8438 260.484 75.3125C260.934 75.7812 261.158 76.3704 261.158 77.0801Z" fill="#1B222D"/>
<path d="M267.262 78.8574C267.548 78.8574 267.825 78.8379 268.092 78.7988C268.359 78.7533 268.57 78.7077 268.727 78.6621V79.9023C268.551 79.987 268.29 80.0553 267.945 80.1074C267.607 80.166 267.301 80.1953 267.027 80.1953C264.957 80.1953 263.922 79.1048 263.922 76.9238V70.5566H262.389V69.7754L263.922 69.1016L264.605 66.8164H265.543V69.2969H268.648V70.5566H265.543V76.8555C265.543 77.5 265.696 77.9948 266.002 78.3398C266.308 78.6849 266.728 78.8574 267.262 78.8574Z" fill="#1B222D"/>
<path d="M277.457 80L277.135 78.4766H277.057C276.523 79.1471 275.989 79.6029 275.455 79.8438C274.928 80.0781 274.267 80.1953 273.473 80.1953C272.411 80.1953 271.578 79.9219 270.973 79.375C270.374 78.8281 270.074 78.0501 270.074 77.041C270.074 74.8796 271.803 73.7467 275.26 73.6426L277.076 73.584V72.9199C277.076 72.0801 276.894 71.4616 276.529 71.0645C276.171 70.6608 275.595 70.459 274.801 70.459C273.909 70.459 272.9 70.7324 271.773 71.2793L271.275 70.0391C271.803 69.7526 272.379 69.528 273.004 69.3652C273.635 69.2025 274.267 69.1211 274.898 69.1211C276.174 69.1211 277.118 69.4043 277.73 69.9707C278.349 70.5371 278.658 71.4453 278.658 72.6953V80H277.457ZM273.795 78.8574C274.804 78.8574 275.595 78.5807 276.168 78.0273C276.747 77.474 277.037 76.6992 277.037 75.7031V74.7363L275.416 74.8047C274.127 74.8503 273.196 75.0521 272.623 75.4102C272.057 75.7617 271.773 76.3118 271.773 77.0605C271.773 77.6465 271.949 78.0924 272.301 78.3984C272.659 78.7044 273.157 78.8574 273.795 78.8574Z" fill="#1B222D"/>
<path d="M285.465 78.8574C285.751 78.8574 286.028 78.8379 286.295 78.7988C286.562 78.7533 286.773 78.7077 286.93 78.6621V79.9023C286.754 79.987 286.493 80.0553 286.148 80.1074C285.81 80.166 285.504 80.1953 285.23 80.1953C283.16 80.1953 282.125 79.1048 282.125 76.9238V70.5566H280.592V69.7754L282.125 69.1016L282.809 66.8164H283.746V69.2969H286.852V70.5566H283.746V76.8555C283.746 77.5 283.899 77.9948 284.205 78.3398C284.511 78.6849 284.931 78.8574 285.465 78.8574Z" fill="#1B222D"/>
<path d="M293.6 80.1953C292.018 80.1953 290.768 79.7135 289.85 78.75C288.938 77.7865 288.482 76.4486 288.482 74.7363C288.482 73.0111 288.906 71.6406 289.752 70.625C290.605 69.6094 291.747 69.1016 293.18 69.1016C294.521 69.1016 295.582 69.5443 296.363 70.4297C297.145 71.3086 297.535 72.4707 297.535 73.916V74.9414H290.162C290.195 76.1979 290.51 77.1517 291.109 77.8027C291.715 78.4538 292.564 78.7793 293.658 78.7793C294.811 78.7793 295.95 78.5384 297.076 78.0566V79.502C296.503 79.7493 295.96 79.9251 295.445 80.0293C294.938 80.14 294.322 80.1953 293.6 80.1953ZM293.16 70.459C292.301 70.459 291.614 70.7389 291.1 71.2988C290.592 71.8587 290.292 72.6335 290.201 73.623H295.797C295.797 72.6009 295.569 71.8197 295.113 71.2793C294.658 70.7324 294.007 70.459 293.16 70.459Z" fill="#1B222D"/>
<path d="M32 51H332V52H32V51Z" fill="#1B222D"/>
<path d="M35.484 0.749999C35.5507 0.749999 35.584 0.849999 35.584 1.05C35.584 1.25 35.5507 1.35 35.484 1.35C34.1507 1.35 33.1007 1.88333 32.334 2.95C31.5673 3.98333 31.184 5.38333 31.184 7.15V32.75C31.184 32.85 31.1007 32.9167 30.934 32.95C30.8007 32.9833 30.7007 32.9667 30.634 32.9L7.18398 6.2V25.65C7.18398 27.4167 7.55065 28.8167 8.28398 29.85C9.01732 30.8833 10.034 31.4 11.334 31.4C11.4007 31.4 11.434 31.5 11.434 31.7C11.434 31.9 11.4007 32 11.334 32C10.4007 32 9.68398 31.9833 9.18398 31.95L6.48398 31.9L3.38398 31.95C2.81732 31.9833 2.00065 32 0.933984 32C0.833984 32 0.783984 31.9 0.783984 31.7C0.783984 31.5 0.833984 31.4 0.933984 31.4C2.40065 31.4 3.55065 30.8833 4.38398 29.85C5.25065 28.8167 5.68398 27.4167 5.68398 25.65V4.5C4.58398 3.3 3.63398 2.48333 2.83398 2.05C2.06732 1.58333 1.26732 1.35 0.433984 1.35C0.367318 1.35 0.333984 1.25 0.333984 1.05C0.333984 0.849999 0.367318 0.749999 0.433984 0.749999L2.53398 0.799998C2.96732 0.833331 3.60065 0.849998 4.43398 0.849998L8.23398 0.799998C8.70065 0.766665 9.26732 0.749999 9.93398 0.749999C10.2007 0.749999 10.4007 0.816665 10.534 0.949996C10.6673 1.08333 10.9007 1.36666 11.234 1.8C11.8007 2.56666 12.2007 3.08333 12.434 3.35L29.734 23.3V7.15C29.734 5.35 29.3673 3.93333 28.634 2.9C27.9007 1.86666 26.884 1.35 25.584 1.35C25.5173 1.35 25.484 1.25 25.484 1.05C25.484 0.849999 25.5173 0.749999 25.584 0.749999L27.734 0.799998C28.8007 0.866664 29.7007 0.899997 30.434 0.899997C31.1007 0.899997 32.034 0.866664 33.234 0.799998L35.484 0.749999Z" fill="#1B222D"/>
<path d="M64.6516 7.15C64.6516 5.35 64.2349 3.93333 63.4016 2.9C62.6016 1.86666 61.4682 1.35 60.0016 1.35C59.9349 1.35 59.9016 1.25 59.9016 1.05C59.9016 0.849999 59.9349 0.749999 60.0016 0.749999L62.4016 0.799998C63.6682 0.866664 64.6849 0.899997 65.4516 0.899997C66.0849 0.899997 67.0016 0.866664 68.2016 0.799998L70.5016 0.749999C70.5682 0.749999 70.6016 0.849999 70.6016 1.05C70.6016 1.25 70.5682 1.35 70.5016 1.35C69.2016 1.35 68.1849 1.86666 67.4516 2.9C66.7182 3.93333 66.3516 5.35 66.3516 7.15V21.05C66.3516 23.3833 65.8349 25.4333 64.8016 27.2C63.7682 28.9667 62.3016 30.3333 60.4016 31.3C58.5349 32.2333 56.3682 32.7 53.9016 32.7C51.4349 32.7 49.2516 32.2333 47.3516 31.3C45.4516 30.3667 43.9516 29.0167 42.8516 27.25C41.7849 25.45 41.2516 23.35 41.2516 20.95V4.8C41.2516 3.8 41.1516 3.06667 40.9516 2.6C40.7849 2.13333 40.4516 1.81666 39.9516 1.65C39.4849 1.45 38.7349 1.35 37.7016 1.35C37.6016 1.35 37.5516 1.25 37.5516 1.05C37.5516 0.849999 37.6016 0.749999 37.7016 0.749999L40.3516 0.799998C41.8849 0.866664 43.1016 0.899997 44.0016 0.899997C45.0016 0.899997 46.2682 0.866664 47.8016 0.799998L50.3516 0.749999C50.4516 0.749999 50.5016 0.849999 50.5016 1.05C50.5016 1.25 50.4516 1.35 50.3516 1.35C49.3182 1.35 48.5516 1.45 48.0516 1.65C47.5849 1.85 47.2516 2.2 47.0516 2.7C46.8849 3.16666 46.8016 3.9 46.8016 4.9V19.2C46.8016 23.1667 47.5849 26.1 49.1516 28C50.7182 29.9 52.9349 30.85 55.8016 30.85C58.5682 30.85 60.7349 30.0167 62.3016 28.35C63.8682 26.65 64.6516 24.2333 64.6516 21.1V7.15Z" fill="#1B222D"/>
<path d="M112.908 31.4C112.974 31.4 113.008 31.5 113.008 31.7C113.008 31.9 112.974 32 112.908 32C111.774 32 110.874 31.9833 110.208 31.95L106.508 31.9L102.758 31.95C102.124 31.9833 101.258 32 100.158 32C100.058 32 100.008 31.9 100.008 31.7C100.008 31.5 100.058 31.4 100.158 31.4C101.558 31.4 102.508 31.2333 103.008 30.9C103.508 30.5667 103.758 29.8667 103.758 28.8L103.708 27.95L102.658 7.5L92.3578 31.65C92.2911 31.7833 92.1578 31.85 91.9578 31.85C91.7578 31.85 91.6245 31.7833 91.5578 31.65L78.9078 7.6L78.5078 25.65C78.4745 27.45 78.8245 28.8667 79.5578 29.9C80.3245 30.9 81.3911 31.4 82.7578 31.4C82.8578 31.4 82.9078 31.5 82.9078 31.7C82.9078 31.9 82.8578 32 82.7578 32C81.8578 32 81.1578 31.9833 80.6578 31.95L77.9078 31.9L74.7578 31.95C74.2245 31.9833 73.5078 32 72.6078 32C72.5078 32 72.4578 31.9 72.4578 31.7C72.4578 31.5 72.5078 31.4 72.6078 31.4C73.9745 31.4 75.0578 30.8833 75.8578 29.85C76.6578 28.8167 77.0745 27.4167 77.1078 25.65L77.5578 4.95L77.5078 4.9C76.8411 3.66666 76.1411 2.76666 75.4078 2.2C74.7078 1.63333 73.8911 1.35 72.9578 1.35C72.8578 1.35 72.8078 1.25 72.8078 1.05C72.8078 0.849999 72.8578 0.749999 72.9578 0.749999L75.3078 0.799998C75.7745 0.833331 76.3745 0.849998 77.1078 0.849998L79.7578 0.799998C80.0578 0.766665 80.4411 0.749999 80.9078 0.749999C81.3411 0.749999 81.6745 0.899998 81.9078 1.2C82.1411 1.5 82.5745 2.21666 83.2078 3.35L94.1078 23.8L103.608 2C103.808 1.53333 104.008 1.21666 104.208 1.05C104.441 0.849999 104.741 0.749999 105.108 0.749999C105.408 0.749999 105.741 0.766665 106.108 0.799998C106.508 0.833331 106.958 0.849998 107.458 0.849998L110.408 0.799998C110.874 0.766665 111.541 0.749999 112.408 0.749999C112.508 0.749999 112.558 0.849999 112.558 1.05C112.558 1.25 112.508 1.35 112.408 1.35C110.841 1.35 109.708 1.66666 109.008 2.3C108.308 2.93333 107.991 3.91666 108.058 5.25L109.258 27.95C109.324 28.9833 109.441 29.7333 109.608 30.2C109.808 30.6667 110.141 30.9833 110.608 31.15C111.108 31.3167 111.874 31.4 112.908 31.4Z" fill="#1B222D"/>
<path d="M145.379 0.749999C145.446 0.749999 145.479 0.849999 145.479 1.05C145.479 1.25 145.446 1.35 145.379 1.35C144.346 1.35 143.079 2 141.579 3.3C140.079 4.56667 138.746 6.16666 137.579 8.1L132.379 16.8V27.95C132.379 28.9833 132.462 29.7333 132.629 30.2C132.796 30.6667 133.112 30.9833 133.579 31.15C134.079 31.3167 134.862 31.4 135.929 31.4C136.029 31.4 136.079 31.5 136.079 31.7C136.079 31.9 136.029 32 135.929 32C134.829 32 133.962 31.9833 133.329 31.95L129.579 31.9L125.879 31.95C125.212 31.9833 124.312 32 123.179 32C123.112 32 123.079 31.9 123.079 31.7C123.079 31.5 123.112 31.4 123.179 31.4C124.246 31.4 125.029 31.3167 125.529 31.15C126.029 30.9833 126.362 30.6667 126.529 30.2C126.729 29.7 126.829 28.95 126.829 27.95V17.85L119.529 6.5C118.296 4.56666 117.262 3.23333 116.429 2.5C115.629 1.73333 114.946 1.35 114.379 1.35C114.279 1.35 114.229 1.25 114.229 1.05C114.229 0.849999 114.279 0.749999 114.379 0.749999L115.929 0.799998C116.662 0.866664 117.179 0.899997 117.479 0.899997C118.646 0.899997 120.329 0.866664 122.529 0.799998L125.829 0.749999C125.896 0.749999 125.929 0.849999 125.929 1.05C125.929 1.25 125.896 1.35 125.829 1.35C125.262 1.35 124.812 1.48333 124.479 1.75C124.179 2.01667 124.029 2.36666 124.029 2.8C124.029 3.33333 124.262 3.96667 124.729 4.7L131.579 15.5L136.179 7.65C137.079 6.15 137.529 4.86667 137.529 3.8C137.529 3 137.279 2.4 136.779 2C136.312 1.56666 135.629 1.35 134.729 1.35C134.629 1.35 134.579 1.25 134.579 1.05C134.579 0.849999 134.629 0.749999 134.729 0.749999L137.379 0.799998C138.912 0.866664 140.279 0.899997 141.479 0.899997C142.046 0.899997 142.729 0.866664 143.529 0.799998L145.379 0.749999Z" fill="#1B222D"/>
<path d="M150.158 0.749999C151.324 0.749999 152.224 1.2 152.858 2.1C153.524 3 153.858 4.28333 153.858 5.95C153.858 7.45 153.524 8.85 152.858 10.15C152.191 11.4167 151.191 12.7 149.858 14C149.824 14.0333 149.774 14.05 149.708 14.05C149.608 14.05 149.524 14 149.458 13.9C149.391 13.8 149.391 13.7167 149.458 13.65C151.091 11.9833 151.908 10.0167 151.908 7.75C151.908 6.81666 151.741 6.13333 151.408 5.7C151.108 6.2 150.491 6.45 149.558 6.45C148.758 6.45 148.108 6.2 147.608 5.7C147.141 5.16666 146.908 4.48333 146.908 3.65C146.908 2.75 147.191 2.05 147.758 1.55C148.358 1.01667 149.158 0.749999 150.158 0.749999Z" fill="#1B222D"/>
<path d="M163.259 5.8C163.259 7 163.559 8.06666 164.159 9C164.792 9.93333 165.559 10.75 166.459 11.45C167.359 12.15 168.575 13 170.109 14C171.775 15.0667 173.109 16 174.109 16.8C175.109 17.6 175.959 18.5833 176.659 19.75C177.359 20.8833 177.709 22.2 177.709 23.7C177.709 25.4333 177.242 26.9833 176.309 28.35C175.375 29.6833 174.075 30.7333 172.409 31.5C170.775 32.2333 168.942 32.6 166.909 32.6C165.409 32.6 163.842 32.4 162.209 32C160.575 31.5667 159.475 31.1 158.909 30.6C158.742 30.4667 158.609 30.35 158.509 30.25C158.442 30.1167 158.409 29.9167 158.409 29.65L158.259 21.7V21.65C158.259 21.5167 158.342 21.45 158.509 21.45C158.675 21.4167 158.775 21.4667 158.809 21.6C159.809 23.6333 160.675 25.2833 161.409 26.55C162.175 27.8167 163.125 28.9333 164.259 29.9C165.425 30.8667 166.742 31.35 168.209 31.35C169.542 31.35 170.642 31 171.509 30.3C172.375 29.5667 172.809 28.3333 172.809 26.6C172.809 25.1333 172.475 23.85 171.809 22.75C171.175 21.65 170.392 20.7167 169.459 19.95C168.525 19.1833 167.242 18.2667 165.609 17.2C164.009 16.1667 162.759 15.2833 161.859 14.55C160.992 13.8167 160.242 12.9333 159.609 11.9C158.975 10.8667 158.659 9.65 158.659 8.25C158.659 6.48333 159.159 5 160.159 3.8C161.192 2.56666 162.509 1.66666 164.109 1.1C165.709 0.499997 167.392 0.199997 169.159 0.199997C170.325 0.199997 171.509 0.316664 172.709 0.549998C173.909 0.749998 174.875 0.999998 175.609 1.3C175.909 1.43333 176.109 1.58333 176.209 1.75C176.309 1.88333 176.359 2.06666 176.359 2.3V9.65C176.359 9.75 176.275 9.83333 176.109 9.9C175.942 9.93333 175.842 9.9 175.809 9.8L175.409 8.85C174.575 6.75 173.592 4.96666 172.459 3.5C171.359 2.03333 169.809 1.3 167.809 1.3C166.475 1.3 165.375 1.68333 164.509 2.45C163.675 3.21666 163.259 4.33333 163.259 5.8Z" fill="#1B222D"/>
<path d="M228.61 31.4C228.71 31.4 228.76 31.5 228.76 31.7C228.76 31.9 228.71 32 228.61 32C227.443 32 226.51 31.9833 225.81 31.95L221.96 31.9L217.46 31.95C216.86 31.9833 216.043 32 215.01 32C214.91 32 214.86 31.9 214.86 31.7C214.86 31.5 214.91 31.4 215.01 31.4C216.243 31.4 217.143 31.3167 217.71 31.15C218.276 30.9833 218.66 30.6667 218.86 30.2C219.06 29.7333 219.16 28.9833 219.16 27.95V16.45H203.01V27.95C203.01 28.95 203.11 29.7 203.31 30.2C203.51 30.6667 203.893 30.9833 204.46 31.15C205.026 31.3167 205.926 31.4 207.16 31.4C207.226 31.4 207.26 31.5 207.26 31.7C207.26 31.9 207.226 32 207.16 32C205.993 32 205.06 31.9833 204.36 31.95L200.01 31.9L196.26 31.95C195.593 31.9833 194.676 32 193.51 32C193.443 32 193.41 31.9 193.41 31.7C193.41 31.5 193.443 31.4 193.51 31.4C194.676 31.4 195.526 31.3167 196.06 31.15C196.593 30.9833 196.96 30.6667 197.16 30.2C197.36 29.7 197.46 28.95 197.46 27.95V4.8C197.46 3.8 197.36 3.06667 197.16 2.6C196.96 2.13333 196.593 1.81666 196.06 1.65C195.56 1.45 194.743 1.35 193.61 1.35C193.51 1.35 193.46 1.25 193.46 1.05C193.46 0.849999 193.51 0.749999 193.61 0.749999L196.31 0.799998C197.843 0.866664 199.076 0.899997 200.01 0.899997C201.276 0.899997 202.743 0.866664 204.41 0.799998L207.16 0.749999C207.226 0.749999 207.26 0.849999 207.26 1.05C207.26 1.25 207.226 1.35 207.16 1.35C205.96 1.35 205.076 1.45 204.51 1.65C203.943 1.85 203.543 2.2 203.31 2.7C203.11 3.16666 203.01 3.9 203.01 4.9V15.05H219.16V4.9C219.16 3.9 219.06 3.16666 218.86 2.7C218.66 2.2 218.276 1.85 217.71 1.65C217.143 1.45 216.243 1.35 215.01 1.35C214.91 1.35 214.86 1.25 214.86 1.05C214.86 0.849999 214.91 0.749999 215.01 0.749999L217.46 0.799998C219.126 0.866664 220.626 0.899997 221.96 0.899997C222.86 0.899997 224.143 0.866664 225.81 0.799998L228.61 0.749999C228.71 0.749999 228.76 0.849999 228.76 1.05C228.76 1.25 228.71 1.35 228.61 1.35C227.476 1.35 226.626 1.45 226.06 1.65C225.526 1.81666 225.16 2.13333 224.96 2.6C224.793 3.06667 224.71 3.8 224.71 4.8V27.95C224.71 28.95 224.793 29.7 224.96 30.2C225.16 30.6667 225.526 30.9833 226.06 31.15C226.593 31.3167 227.443 31.4 228.61 31.4Z" fill="#1B222D"/>
<path d="M248.493 32.6C245.393 32.6 242.627 31.8833 240.193 30.45C237.793 28.9833 235.927 27.0167 234.593 24.55C233.293 22.05 232.643 19.3333 232.643 16.4C232.643 12.9667 233.51 10.0333 235.243 7.6C236.977 5.13333 239.193 3.28333 241.893 2.05C244.627 0.816664 247.41 0.199997 250.243 0.199997C253.41 0.199997 256.193 0.949997 258.593 2.45C260.993 3.91666 262.827 5.86666 264.093 8.3C265.393 10.7333 266.043 13.3167 266.043 16.05C266.043 19.0833 265.243 21.8667 263.643 24.4C262.043 26.9333 259.893 28.9333 257.193 30.4C254.527 31.8667 251.627 32.6 248.493 32.6ZM250.143 31.35C252.01 31.35 253.677 30.8167 255.143 29.75C256.643 28.65 257.81 27.0667 258.643 25C259.477 22.9 259.893 20.4 259.893 17.5C259.893 14.4333 259.427 11.7 258.493 9.3C257.56 6.86666 256.21 4.96666 254.443 3.6C252.677 2.23333 250.61 1.55 248.243 1.55C245.21 1.55 242.877 2.7 241.243 5C239.61 7.26666 238.793 10.45 238.793 14.55C238.793 17.7833 239.277 20.6833 240.243 23.25C241.243 25.7833 242.593 27.7667 244.293 29.2C246.027 30.6333 247.977 31.35 250.143 31.35Z" fill="#1B222D"/>
<path d="M310.125 31.4C310.191 31.4 310.225 31.5 310.225 31.7C310.225 31.9 310.191 32 310.125 32C308.991 32 308.091 31.9833 307.425 31.95L303.725 31.9L299.975 31.95C299.341 31.9833 298.475 32 297.375 32C297.275 32 297.225 31.9 297.225 31.7C297.225 31.5 297.275 31.4 297.375 31.4C298.775 31.4 299.725 31.2333 300.225 30.9C300.725 30.5667 300.975 29.8667 300.975 28.8L300.925 27.95L299.875 7.5L289.575 31.65C289.508 31.7833 289.375 31.85 289.175 31.85C288.975 31.85 288.841 31.7833 288.775 31.65L276.125 7.6L275.725 25.65C275.691 27.45 276.041 28.8667 276.775 29.9C277.541 30.9 278.608 31.4 279.975 31.4C280.075 31.4 280.125 31.5 280.125 31.7C280.125 31.9 280.075 32 279.975 32C279.075 32 278.375 31.9833 277.875 31.95L275.125 31.9L271.975 31.95C271.441 31.9833 270.725 32 269.825 32C269.725 32 269.675 31.9 269.675 31.7C269.675 31.5 269.725 31.4 269.825 31.4C271.191 31.4 272.275 30.8833 273.075 29.85C273.875 28.8167 274.291 27.4167 274.325 25.65L274.775 4.95L274.725 4.9C274.058 3.66666 273.358 2.76666 272.625 2.2C271.925 1.63333 271.108 1.35 270.175 1.35C270.075 1.35 270.025 1.25 270.025 1.05C270.025 0.849999 270.075 0.749999 270.175 0.749999L272.525 0.799998C272.991 0.833331 273.591 0.849998 274.325 0.849998L276.975 0.799998C277.275 0.766665 277.658 0.749999 278.125 0.749999C278.558 0.749999 278.891 0.899998 279.125 1.2C279.358 1.5 279.791 2.21666 280.425 3.35L291.325 23.8L300.825 2C301.025 1.53333 301.225 1.21666 301.425 1.05C301.658 0.849999 301.958 0.749999 302.325 0.749999C302.625 0.749999 302.958 0.766665 303.325 0.799998C303.725 0.833331 304.175 0.849998 304.675 0.849998L307.625 0.799998C308.091 0.766665 308.758 0.749999 309.625 0.749999C309.725 0.749999 309.775 0.849999 309.775 1.05C309.775 1.25 309.725 1.35 309.625 1.35C308.058 1.35 306.925 1.66666 306.225 2.3C305.525 2.93333 305.208 3.91666 305.275 5.25L306.475 27.95C306.541 28.9833 306.658 29.7333 306.825 30.2C307.025 30.6667 307.358 30.9833 307.825 31.15C308.325 31.3167 309.091 31.4 310.125 31.4Z" fill="#1B222D"/>
<path d="M336.146 24.05C336.146 23.9833 336.212 23.95 336.346 23.95C336.446 23.95 336.529 23.9833 336.596 24.05C336.696 24.0833 336.746 24.1167 336.746 24.15C336.412 26.75 336.246 29.1167 336.246 31.25C336.246 31.5167 336.196 31.7167 336.096 31.85C335.996 31.95 335.796 32 335.496 32H313.396C313.296 32 313.246 31.9 313.246 31.7C313.246 31.5 313.296 31.4 313.396 31.4C314.462 31.4 315.229 31.3167 315.696 31.15C316.196 30.9833 316.529 30.6667 316.696 30.2C316.862 29.7 316.946 28.95 316.946 27.95V4.8C316.946 3.8 316.862 3.06667 316.696 2.6C316.529 2.13333 316.196 1.81666 315.696 1.65C315.196 1.45 314.429 1.35 313.396 1.35C313.296 1.35 313.246 1.25 313.246 1.05C313.246 0.849999 313.296 0.749999 313.396 0.749999H334.596C334.929 0.749999 335.096 0.899998 335.096 1.2L335.196 7.85C335.196 7.91666 335.096 7.96666 334.896 8C334.729 8.03333 334.629 8 334.596 7.9C334.062 5.96666 333.162 4.53333 331.896 3.6C330.629 2.66666 328.962 2.2 326.896 2.2H325.396C324.396 2.2 323.662 2.41666 323.196 2.85C322.729 3.28333 322.496 3.95 322.496 4.85V15.05H326.646C328.579 15.05 330.062 14.7167 331.096 14.05C332.129 13.3833 332.646 12.45 332.646 11.25C332.646 11.15 332.729 11.1 332.896 11.1C333.096 11.1 333.196 11.15 333.196 11.25L333.146 15.75L333.196 18.15C333.262 19.2833 333.296 20.1833 333.296 20.85C333.296 20.9167 333.196 20.95 332.996 20.95C332.796 20.95 332.696 20.9167 332.696 20.85C332.696 19.4833 332.162 18.4167 331.096 17.65C330.062 16.85 328.562 16.45 326.596 16.45H322.496V27.75C322.496 28.7167 322.679 29.4333 323.046 29.9C323.412 30.3667 323.996 30.6 324.796 30.6H326.446C329.046 30.6 331.129 30.0667 332.696 29C334.262 27.9333 335.412 26.2833 336.146 24.05Z" fill="#1B222D"/>
<path d="M347.634 5.8C347.634 7 347.934 8.06666 348.534 9C349.167 9.93333 349.934 10.75 350.834 11.45C351.734 12.15 352.95 13 354.484 14C356.15 15.0667 357.484 16 358.484 16.8C359.484 17.6 360.334 18.5833 361.034 19.75C361.734 20.8833 362.084 22.2 362.084 23.7C362.084 25.4333 361.617 26.9833 360.684 28.35C359.75 29.6833 358.45 30.7333 356.784 31.5C355.15 32.2333 353.317 32.6 351.284 32.6C349.784 32.6 348.217 32.4 346.584 32C344.95 31.5667 343.85 31.1 343.284 30.6C343.117 30.4667 342.984 30.35 342.884 30.25C342.817 30.1167 342.784 29.9167 342.784 29.65L342.634 21.7V21.65C342.634 21.5167 342.717 21.45 342.884 21.45C343.05 21.4167 343.15 21.4667 343.184 21.6C344.184 23.6333 345.05 25.2833 345.784 26.55C346.55 27.8167 347.5 28.9333 348.634 29.9C349.8 30.8667 351.117 31.35 352.584 31.35C353.917 31.35 355.017 31 355.884 30.3C356.75 29.5667 357.184 28.3333 357.184 26.6C357.184 25.1333 356.85 23.85 356.184 22.75C355.55 21.65 354.767 20.7167 353.834 19.95C352.9 19.1833 351.617 18.2667 349.984 17.2C348.384 16.1667 347.134 15.2833 346.234 14.55C345.367 13.8167 344.617 12.9333 343.984 11.9C343.35 10.8667 343.034 9.65 343.034 8.25C343.034 6.48333 343.534 5 344.534 3.8C345.567 2.56666 346.884 1.66666 348.484 1.1C350.084 0.499997 351.767 0.199997 353.534 0.199997C354.7 0.199997 355.884 0.316664 357.084 0.549998C358.284 0.749998 359.25 0.999998 359.984 1.3C360.284 1.43333 360.484 1.58333 360.584 1.75C360.684 1.88333 360.734 2.06666 360.734 2.3V9.65C360.734 9.75 360.65 9.83333 360.484 9.9C360.317 9.93333 360.217 9.9 360.184 9.8L359.784 8.85C358.95 6.75 357.967 4.96666 356.834 3.5C355.734 2.03333 354.184 1.3 352.184 1.3C350.85 1.3 349.75 1.68333 348.884 2.45C348.05 3.21666 347.634 4.33333 347.634 5.8Z" fill="#1B222D"/>
</svg>
