<svg width="363" height="86" viewBox="0 0 363 86" fill="none" xmlns="http://www.w3.org/2000/svg">
<path d="M72.6914 80.6047L67.8477 67.9484H67.7695C67.8607 68.951 67.9062 70.1425 67.9062 71.5227V80.6047H66.373V66.3273H68.873L73.3945 78.1047H73.4727L78.0332 66.3273H80.5137V80.6047H78.8535V71.4055C78.8535 70.3508 78.8991 69.205 78.9902 67.968H78.9121L74.0293 80.6047H72.6914Z" fill="#F2F2F2"/>
<path d="M85.8164 80.6047H84.1953V69.9016H85.8164V80.6047ZM84.0586 67.0012C84.0586 66.6301 84.1497 66.3599 84.332 66.1906C84.5143 66.0148 84.7422 65.927 85.0156 65.927C85.276 65.927 85.5007 66.0148 85.6895 66.1906C85.8783 66.3664 85.9727 66.6366 85.9727 67.0012C85.9727 67.3658 85.8783 67.6392 85.6895 67.8215C85.5007 67.9973 85.276 68.0852 85.0156 68.0852C84.7422 68.0852 84.5143 67.9973 84.332 67.8215C84.1497 67.6392 84.0586 67.3658 84.0586 67.0012Z" fill="#F2F2F2"/>
<path d="M95.8359 80.6047L95.5137 79.0813H95.4355C94.9017 79.7518 94.3678 80.2076 93.834 80.4484C93.3066 80.6828 92.6458 80.8 91.8516 80.8C90.7904 80.8 89.957 80.5266 89.3516 79.9797C88.7526 79.4328 88.4531 78.6548 88.4531 77.6457C88.4531 75.4842 90.1816 74.3514 93.6387 74.2473L95.4551 74.1887V73.5246C95.4551 72.6848 95.2728 72.0663 94.9082 71.6691C94.5501 71.2655 93.974 71.0637 93.1797 71.0637C92.2878 71.0637 91.2786 71.3371 90.1523 71.884L89.6543 70.6438C90.1816 70.3573 90.7578 70.1327 91.3828 69.9699C92.0143 69.8072 92.6458 69.7258 93.2773 69.7258C94.5534 69.7258 95.4974 70.009 96.1094 70.5754C96.7279 71.1418 97.0371 72.05 97.0371 73.3V80.6047H95.8359ZM92.1738 79.4621C93.1829 79.4621 93.974 79.1854 94.5469 78.632C95.1263 78.0786 95.416 77.3039 95.416 76.3078V75.341L93.7949 75.4094C92.5059 75.455 91.5749 75.6568 91.002 76.0148C90.4355 76.3664 90.1523 76.9165 90.1523 77.6652C90.1523 78.2512 90.3281 78.6971 90.6797 79.0031C91.0378 79.3091 91.5358 79.4621 92.1738 79.4621Z" fill="#F2F2F2"/>
<path d="M114.029 80.6047V73.6418C114.029 72.7889 113.847 72.1509 113.482 71.7277C113.118 71.298 112.551 71.0832 111.783 71.0832C110.774 71.0832 110.029 71.3729 109.547 71.9523C109.065 72.5318 108.824 73.4237 108.824 74.6281V80.6047H107.203V73.6418C107.203 72.7889 107.021 72.1509 106.656 71.7277C106.292 71.298 105.722 71.0832 104.947 71.0832C103.932 71.0832 103.186 71.3892 102.711 72.0012C102.242 72.6066 102.008 73.6027 102.008 74.9895V80.6047H100.387V69.9016H101.705L101.969 71.3664H102.047C102.353 70.8456 102.783 70.4387 103.336 70.1457C103.896 69.8527 104.521 69.7063 105.211 69.7063C106.884 69.7063 107.978 70.3117 108.492 71.5227H108.57C108.889 70.9628 109.352 70.5201 109.957 70.1945C110.562 69.869 111.253 69.7063 112.027 69.7063C113.238 69.7063 114.143 70.0188 114.742 70.6438C115.348 71.2622 115.65 72.2551 115.65 73.6223V80.6047H114.029Z" fill="#F2F2F2"/>
<path d="M120.621 80.6047H119V69.9016H120.621V80.6047ZM118.863 67.0012C118.863 66.6301 118.954 66.3599 119.137 66.1906C119.319 66.0148 119.547 65.927 119.82 65.927C120.081 65.927 120.305 66.0148 120.494 66.1906C120.683 66.3664 120.777 66.6366 120.777 67.0012C120.777 67.3658 120.683 67.6392 120.494 67.8215C120.305 67.9973 120.081 68.0852 119.82 68.0852C119.547 68.0852 119.319 67.9973 119.137 67.8215C118.954 67.6392 118.863 67.3658 118.863 67.0012Z" fill="#F2F2F2"/>
<path d="M129.498 80.6047V66.3273H131.158V79.1008H137.457V80.6047H129.498Z" fill="#F2F2F2"/>
<path d="M141.168 69.9016V76.8449C141.168 77.7173 141.367 78.3684 141.764 78.798C142.161 79.2277 142.783 79.4426 143.629 79.4426C144.749 79.4426 145.566 79.1366 146.08 78.5246C146.601 77.9126 146.861 76.9133 146.861 75.5266V69.9016H148.482V80.6047H147.145L146.91 79.1691H146.822C146.49 79.6965 146.028 80.1001 145.436 80.3801C144.85 80.66 144.179 80.8 143.424 80.8C142.122 80.8 141.145 80.4908 140.494 79.8723C139.85 79.2538 139.527 78.2642 139.527 76.9035V69.9016H141.168Z" fill="#F2F2F2"/>
<path d="M154.508 75.1262L150.787 69.9016H152.633L155.455 74.0031L158.268 69.9016H160.094L156.373 75.1262L160.289 80.6047H158.453L155.455 76.2688L152.428 80.6047H150.592L154.508 75.1262Z" fill="#F2F2F2"/>
<path d="M163.941 69.9016V76.8449C163.941 77.7173 164.14 78.3684 164.537 78.798C164.934 79.2277 165.556 79.4426 166.402 79.4426C167.522 79.4426 168.339 79.1366 168.854 78.5246C169.374 77.9126 169.635 76.9133 169.635 75.5266V69.9016H171.256V80.6047H169.918L169.684 79.1691H169.596C169.264 79.6965 168.801 80.1001 168.209 80.3801C167.623 80.66 166.952 80.8 166.197 80.8C164.895 80.8 163.919 80.4908 163.268 79.8723C162.623 79.2538 162.301 78.2642 162.301 76.9035V69.9016H163.941Z" fill="#F2F2F2"/>
<path d="M179.586 69.7063C180.061 69.7063 180.488 69.7453 180.865 69.8234L180.641 71.3273C180.198 71.2297 179.807 71.1809 179.469 71.1809C178.603 71.1809 177.861 71.5324 177.242 72.2355C176.63 72.9387 176.324 73.8143 176.324 74.8625V80.6047H174.703V69.9016H176.041L176.227 71.884H176.305C176.702 71.1874 177.18 70.6503 177.74 70.2727C178.3 69.8951 178.915 69.7063 179.586 69.7063Z" fill="#F2F2F2"/>
<path d="M181.168 69.9016H182.906L185.25 76.0051C185.764 77.3983 186.083 78.4042 186.207 79.0227H186.285C186.37 78.6906 186.546 78.1242 186.812 77.3234C187.086 76.5161 187.971 74.0422 189.469 69.9016H191.207L186.607 82.0891C186.152 83.2935 185.618 84.1464 185.006 84.6477C184.4 85.1555 183.655 85.4094 182.77 85.4094C182.275 85.4094 181.786 85.354 181.305 85.2434V83.9445C181.663 84.0227 182.063 84.0617 182.506 84.0617C183.619 84.0617 184.413 83.4367 184.889 82.1867L185.484 80.6633L181.168 69.9016Z" fill="#F2F2F2"/>
<path d="M200.045 74.6672V80.6047H198.385V66.3273H202.301C204.052 66.3273 205.344 66.6626 206.178 67.3332C207.018 68.0038 207.438 69.0129 207.438 70.3605C207.438 72.2486 206.48 73.5246 204.566 74.1887L208.443 80.6047H206.48L203.023 74.6672H200.045ZM200.045 73.2414H202.32C203.492 73.2414 204.352 73.0103 204.898 72.548C205.445 72.0793 205.719 71.3794 205.719 70.4484C205.719 69.5044 205.439 68.8241 204.879 68.4074C204.326 67.9908 203.434 67.7824 202.203 67.7824H200.045V73.2414Z" fill="#F2F2F2"/>
<path d="M215.025 80.8C213.443 80.8 212.193 80.3182 211.275 79.3547C210.364 78.3911 209.908 77.0533 209.908 75.341C209.908 73.6158 210.331 72.2453 211.178 71.2297C212.031 70.2141 213.173 69.7063 214.605 69.7063C215.947 69.7063 217.008 70.149 217.789 71.0344C218.57 71.9133 218.961 73.0754 218.961 74.5207V75.5461H211.588C211.62 76.8026 211.936 77.7564 212.535 78.4074C213.141 79.0585 213.99 79.384 215.084 79.384C216.236 79.384 217.376 79.1431 218.502 78.6613V80.1066C217.929 80.354 217.385 80.5298 216.871 80.634C216.363 80.7447 215.748 80.8 215.025 80.8ZM214.586 71.0637C213.727 71.0637 213.04 71.3436 212.525 71.9035C212.018 72.4634 211.718 73.2382 211.627 74.2277H217.223C217.223 73.2056 216.995 72.4244 216.539 71.884C216.083 71.3371 215.432 71.0637 214.586 71.0637Z" fill="#F2F2F2"/>
<path d="M228.316 80.6047L227.994 79.0813H227.916C227.382 79.7518 226.848 80.2076 226.314 80.4484C225.787 80.6828 225.126 80.8 224.332 80.8C223.271 80.8 222.438 80.5266 221.832 79.9797C221.233 79.4328 220.934 78.6548 220.934 77.6457C220.934 75.4842 222.662 74.3514 226.119 74.2473L227.936 74.1887V73.5246C227.936 72.6848 227.753 72.0663 227.389 71.6691C227.031 71.2655 226.454 71.0637 225.66 71.0637C224.768 71.0637 223.759 71.3371 222.633 71.884L222.135 70.6438C222.662 70.3573 223.238 70.1327 223.863 69.9699C224.495 69.8072 225.126 69.7258 225.758 69.7258C227.034 69.7258 227.978 70.009 228.59 70.5754C229.208 71.1418 229.518 72.05 229.518 73.3V80.6047H228.316ZM224.654 79.4621C225.663 79.4621 226.454 79.1854 227.027 78.632C227.607 78.0786 227.896 77.3039 227.896 76.3078V75.341L226.275 75.4094C224.986 75.455 224.055 75.6568 223.482 76.0148C222.916 76.3664 222.633 76.9165 222.633 77.6652C222.633 78.2512 222.809 78.6971 223.16 79.0031C223.518 79.3091 224.016 79.4621 224.654 79.4621Z" fill="#F2F2F2"/>
<path d="M234.488 80.6047H232.867V65.4094H234.488V80.6047Z" fill="#F2F2F2"/>
<path d="M251.324 80.6047H243.365V66.3273H251.324V67.802H245.025V72.4016H250.943V73.8664H245.025V79.1203H251.324V80.6047Z" fill="#F2F2F2"/>
<path d="M261.158 77.6848C261.158 78.6809 260.787 79.4491 260.045 79.9895C259.303 80.5298 258.261 80.8 256.92 80.8C255.501 80.8 254.394 80.5754 253.6 80.1262V78.6223C254.114 78.8827 254.664 79.0878 255.25 79.2375C255.842 79.3872 256.412 79.4621 256.959 79.4621C257.805 79.4621 258.456 79.3286 258.912 79.0617C259.368 78.7883 259.596 78.3749 259.596 77.8215C259.596 77.4048 259.413 77.05 259.049 76.757C258.691 76.4576 257.988 76.106 256.939 75.7023C255.943 75.3313 255.234 75.009 254.811 74.7355C254.394 74.4556 254.081 74.1398 253.873 73.7883C253.671 73.4367 253.57 73.0168 253.57 72.5285C253.57 71.6561 253.925 70.9693 254.635 70.468C255.344 69.9602 256.318 69.7063 257.555 69.7063C258.707 69.7063 259.833 69.9406 260.934 70.4094L260.357 71.7277C259.283 71.285 258.31 71.0637 257.438 71.0637C256.669 71.0637 256.09 71.1841 255.699 71.425C255.309 71.6659 255.113 71.9979 255.113 72.4211C255.113 72.7076 255.185 72.9517 255.328 73.1535C255.478 73.3553 255.715 73.5474 256.041 73.7297C256.367 73.912 256.992 74.1757 257.916 74.5207C259.186 74.9829 260.042 75.4484 260.484 75.9172C260.934 76.3859 261.158 76.9751 261.158 77.6848Z" fill="#F2F2F2"/>
<path d="M267.262 79.4621C267.548 79.4621 267.825 79.4426 268.092 79.4035C268.359 79.3579 268.57 79.3124 268.727 79.2668V80.507C268.551 80.5917 268.29 80.66 267.945 80.7121C267.607 80.7707 267.301 80.8 267.027 80.8C264.957 80.8 263.922 79.7095 263.922 77.5285V71.1613H262.389V70.3801L263.922 69.7063L264.605 67.4211H265.543V69.9016H268.648V71.1613H265.543V77.4602C265.543 78.1047 265.696 78.5995 266.002 78.9445C266.308 79.2896 266.728 79.4621 267.262 79.4621Z" fill="#F2F2F2"/>
<path d="M277.457 80.6047L277.135 79.0813H277.057C276.523 79.7518 275.989 80.2076 275.455 80.4484C274.928 80.6828 274.267 80.8 273.473 80.8C272.411 80.8 271.578 80.5266 270.973 79.9797C270.374 79.4328 270.074 78.6548 270.074 77.6457C270.074 75.4842 271.803 74.3514 275.26 74.2473L277.076 74.1887V73.5246C277.076 72.6848 276.894 72.0663 276.529 71.6691C276.171 71.2655 275.595 71.0637 274.801 71.0637C273.909 71.0637 272.9 71.3371 271.773 71.884L271.275 70.6438C271.803 70.3573 272.379 70.1327 273.004 69.9699C273.635 69.8072 274.267 69.7258 274.898 69.7258C276.174 69.7258 277.118 70.009 277.73 70.5754C278.349 71.1418 278.658 72.05 278.658 73.3V80.6047H277.457ZM273.795 79.4621C274.804 79.4621 275.595 79.1854 276.168 78.632C276.747 78.0786 277.037 77.3039 277.037 76.3078V75.341L275.416 75.4094C274.127 75.455 273.196 75.6568 272.623 76.0148C272.057 76.3664 271.773 76.9165 271.773 77.6652C271.773 78.2512 271.949 78.6971 272.301 79.0031C272.659 79.3091 273.157 79.4621 273.795 79.4621Z" fill="#F2F2F2"/>
<path d="M285.465 79.4621C285.751 79.4621 286.028 79.4426 286.295 79.4035C286.562 79.3579 286.773 79.3124 286.93 79.2668V80.507C286.754 80.5917 286.493 80.66 286.148 80.7121C285.81 80.7707 285.504 80.8 285.23 80.8C283.16 80.8 282.125 79.7095 282.125 77.5285V71.1613H280.592V70.3801L282.125 69.7063L282.809 67.4211H283.746V69.9016H286.852V71.1613H283.746V77.4602C283.746 78.1047 283.899 78.5995 284.205 78.9445C284.511 79.2896 284.931 79.4621 285.465 79.4621Z" fill="#F2F2F2"/>
<path d="M293.6 80.8C292.018 80.8 290.768 80.3182 289.85 79.3547C288.938 78.3911 288.482 77.0533 288.482 75.341C288.482 73.6158 288.906 72.2453 289.752 71.2297C290.605 70.2141 291.747 69.7063 293.18 69.7063C294.521 69.7063 295.582 70.149 296.363 71.0344C297.145 71.9133 297.535 73.0754 297.535 74.5207V75.5461H290.162C290.195 76.8026 290.51 77.7564 291.109 78.4074C291.715 79.0585 292.564 79.384 293.658 79.384C294.811 79.384 295.95 79.1431 297.076 78.6613V80.1066C296.503 80.354 295.96 80.5298 295.445 80.634C294.938 80.7447 294.322 80.8 293.6 80.8ZM293.16 71.0637C292.301 71.0637 291.614 71.3436 291.1 71.9035C290.592 72.4634 290.292 73.2382 290.201 74.2277H295.797C295.797 73.2056 295.569 72.4244 295.113 71.884C294.658 71.3371 294.007 71.0637 293.16 71.0637Z" fill="#F2F2F2"/>
<path d="M32 51.6047H332V52.6047H32V51.6047Z" fill="#F2F2F2"/>
<path d="M35.484 1.35469C35.5507 1.35469 35.584 1.45469 35.584 1.65469C35.584 1.85469 35.5507 1.95469 35.484 1.95469C34.1507 1.95469 33.1007 2.48802 32.334 3.55469C31.5673 4.58802 31.184 5.98802 31.184 7.75469V33.3547C31.184 33.4547 31.1007 33.5214 30.934 33.5547C30.8007 33.588 30.7007 33.5714 30.634 33.5047L7.18398 6.80469V26.2547C7.18398 28.0214 7.55065 29.4214 8.28398 30.4547C9.01732 31.488 10.034 32.0047 11.334 32.0047C11.4007 32.0047 11.434 32.1047 11.434 32.3047C11.434 32.5047 11.4007 32.6047 11.334 32.6047C10.4007 32.6047 9.68398 32.588 9.18398 32.5547L6.48398 32.5047L3.38398 32.5547C2.81732 32.588 2.00065 32.6047 0.933984 32.6047C0.833984 32.6047 0.783984 32.5047 0.783984 32.3047C0.783984 32.1047 0.833984 32.0047 0.933984 32.0047C2.40065 32.0047 3.55065 31.488 4.38398 30.4547C5.25065 29.4214 5.68398 28.0214 5.68398 26.2547V5.10469C4.58398 3.90469 3.63398 3.08802 2.83398 2.65469C2.06732 2.18802 1.26732 1.95469 0.433984 1.95469C0.367318 1.95469 0.333984 1.85469 0.333984 1.65469C0.333984 1.45469 0.367318 1.35469 0.433984 1.35469L2.53398 1.40469C2.96732 1.43802 3.60065 1.45469 4.43398 1.45469L8.23398 1.40469C8.70065 1.37136 9.26732 1.35469 9.93398 1.35469C10.2007 1.35469 10.4007 1.42136 10.534 1.55469C10.6673 1.68802 10.9007 1.97135 11.234 2.40469C11.8007 3.17135 12.2007 3.68802 12.434 3.95469L29.734 23.9047V7.75469C29.734 5.95469 29.3673 4.53802 28.634 3.50469C27.9007 2.47135 26.884 1.95469 25.584 1.95469C25.5173 1.95469 25.484 1.85469 25.484 1.65469C25.484 1.45469 25.5173 1.35469 25.584 1.35469L27.734 1.40469C28.8007 1.47135 29.7007 1.50469 30.434 1.50469C31.1007 1.50469 32.034 1.47135 33.234 1.40469L35.484 1.35469Z" fill="#F2F2F2"/>
<path d="M64.6516 7.75469C64.6516 5.95469 64.2349 4.53802 63.4016 3.50469C62.6016 2.47135 61.4682 1.95469 60.0016 1.95469C59.9349 1.95469 59.9016 1.85469 59.9016 1.65469C59.9016 1.45469 59.9349 1.35469 60.0016 1.35469L62.4016 1.40469C63.6682 1.47135 64.6849 1.50469 65.4516 1.50469C66.0849 1.50469 67.0016 1.47135 68.2016 1.40469L70.5016 1.35469C70.5682 1.35469 70.6016 1.45469 70.6016 1.65469C70.6016 1.85469 70.5682 1.95469 70.5016 1.95469C69.2016 1.95469 68.1849 2.47135 67.4516 3.50469C66.7182 4.53802 66.3516 5.95469 66.3516 7.75469V21.6547C66.3516 23.988 65.8349 26.038 64.8016 27.8047C63.7682 29.5714 62.3016 30.938 60.4016 31.9047C58.5349 32.838 56.3682 33.3047 53.9016 33.3047C51.4349 33.3047 49.2516 32.838 47.3516 31.9047C45.4516 30.9714 43.9516 29.6214 42.8516 27.8547C41.7849 26.0547 41.2516 23.9547 41.2516 21.5547V5.40469C41.2516 4.40469 41.1516 3.67136 40.9516 3.20469C40.7849 2.73802 40.4516 2.42135 39.9516 2.25469C39.4849 2.05469 38.7349 1.95469 37.7016 1.95469C37.6016 1.95469 37.5516 1.85469 37.5516 1.65469C37.5516 1.45469 37.6016 1.35469 37.7016 1.35469L40.3516 1.40469C41.8849 1.47135 43.1016 1.50469 44.0016 1.50469C45.0016 1.50469 46.2682 1.47135 47.8016 1.40469L50.3516 1.35469C50.4516 1.35469 50.5016 1.45469 50.5016 1.65469C50.5016 1.85469 50.4516 1.95469 50.3516 1.95469C49.3182 1.95469 48.5516 2.05469 48.0516 2.25469C47.5849 2.45469 47.2516 2.80469 47.0516 3.30469C46.8849 3.77135 46.8016 4.50469 46.8016 5.50469V19.8047C46.8016 23.7714 47.5849 26.7047 49.1516 28.6047C50.7182 30.5047 52.9349 31.4547 55.8016 31.4547C58.5682 31.4547 60.7349 30.6214 62.3016 28.9547C63.8682 27.2547 64.6516 24.838 64.6516 21.7047V7.75469Z" fill="#F2F2F2"/>
<path d="M112.908 32.0047C112.974 32.0047 113.008 32.1047 113.008 32.3047C113.008 32.5047 112.974 32.6047 112.908 32.6047C111.774 32.6047 110.874 32.588 110.208 32.5547L106.508 32.5047L102.758 32.5547C102.124 32.588 101.258 32.6047 100.158 32.6047C100.058 32.6047 100.008 32.5047 100.008 32.3047C100.008 32.1047 100.058 32.0047 100.158 32.0047C101.558 32.0047 102.508 31.838 103.008 31.5047C103.508 31.1714 103.758 30.4714 103.758 29.4047L103.708 28.5547L102.658 8.10469L92.3578 32.2547C92.2911 32.388 92.1578 32.4547 91.9578 32.4547C91.7578 32.4547 91.6245 32.388 91.5578 32.2547L78.9078 8.20469L78.5078 26.2547C78.4745 28.0547 78.8245 29.4714 79.5578 30.5047C80.3245 31.5047 81.3911 32.0047 82.7578 32.0047C82.8578 32.0047 82.9078 32.1047 82.9078 32.3047C82.9078 32.5047 82.8578 32.6047 82.7578 32.6047C81.8578 32.6047 81.1578 32.588 80.6578 32.5547L77.9078 32.5047L74.7578 32.5547C74.2245 32.588 73.5078 32.6047 72.6078 32.6047C72.5078 32.6047 72.4578 32.5047 72.4578 32.3047C72.4578 32.1047 72.5078 32.0047 72.6078 32.0047C73.9745 32.0047 75.0578 31.488 75.8578 30.4547C76.6578 29.4214 77.0745 28.0214 77.1078 26.2547L77.5578 5.55469L77.5078 5.50469C76.8411 4.27135 76.1411 3.37135 75.4078 2.80469C74.7078 2.23802 73.8911 1.95469 72.9578 1.95469C72.8578 1.95469 72.8078 1.85469 72.8078 1.65469C72.8078 1.45469 72.8578 1.35469 72.9578 1.35469L75.3078 1.40469C75.7745 1.43802 76.3745 1.45469 77.1078 1.45469L79.7578 1.40469C80.0578 1.37136 80.4411 1.35469 80.9078 1.35469C81.3411 1.35469 81.6745 1.50469 81.9078 1.80469C82.1411 2.10469 82.5745 2.82135 83.2078 3.95469L94.1078 24.4047L103.608 2.60469C103.808 2.13802 104.008 1.82135 104.208 1.65469C104.441 1.45469 104.741 1.35469 105.108 1.35469C105.408 1.35469 105.741 1.37136 106.108 1.40469C106.508 1.43802 106.958 1.45469 107.458 1.45469L110.408 1.40469C110.874 1.37136 111.541 1.35469 112.408 1.35469C112.508 1.35469 112.558 1.45469 112.558 1.65469C112.558 1.85469 112.508 1.95469 112.408 1.95469C110.841 1.95469 109.708 2.27135 109.008 2.90469C108.308 3.53802 107.991 4.52135 108.058 5.85469L109.258 28.5547C109.324 29.588 109.441 30.338 109.608 30.8047C109.808 31.2714 110.141 31.588 110.608 31.7547C111.108 31.9214 111.874 32.0047 112.908 32.0047Z" fill="#F2F2F2"/>
<path d="M145.379 1.35469C145.446 1.35469 145.479 1.45469 145.479 1.65469C145.479 1.85469 145.446 1.95469 145.379 1.95469C144.346 1.95469 143.079 2.60469 141.579 3.90469C140.079 5.17136 138.746 6.77136 137.579 8.70469L132.379 17.4047V28.5547C132.379 29.588 132.462 30.338 132.629 30.8047C132.796 31.2714 133.112 31.588 133.579 31.7547C134.079 31.9214 134.862 32.0047 135.929 32.0047C136.029 32.0047 136.079 32.1047 136.079 32.3047C136.079 32.5047 136.029 32.6047 135.929 32.6047C134.829 32.6047 133.962 32.588 133.329 32.5547L129.579 32.5047L125.879 32.5547C125.212 32.588 124.312 32.6047 123.179 32.6047C123.112 32.6047 123.079 32.5047 123.079 32.3047C123.079 32.1047 123.112 32.0047 123.179 32.0047C124.246 32.0047 125.029 31.9214 125.529 31.7547C126.029 31.588 126.362 31.2714 126.529 30.8047C126.729 30.3047 126.829 29.5547 126.829 28.5547V18.4547L119.529 7.10469C118.296 5.17135 117.262 3.83802 116.429 3.10469C115.629 2.33802 114.946 1.95469 114.379 1.95469C114.279 1.95469 114.229 1.85469 114.229 1.65469C114.229 1.45469 114.279 1.35469 114.379 1.35469L115.929 1.40469C116.662 1.47135 117.179 1.50469 117.479 1.50469C118.646 1.50469 120.329 1.47135 122.529 1.40469L125.829 1.35469C125.896 1.35469 125.929 1.45469 125.929 1.65469C125.929 1.85469 125.896 1.95469 125.829 1.95469C125.262 1.95469 124.812 2.08802 124.479 2.35469C124.179 2.62136 124.029 2.97136 124.029 3.40469C124.029 3.93802 124.262 4.57136 124.729 5.30469L131.579 16.1047L136.179 8.25469C137.079 6.75469 137.529 5.47136 137.529 4.40469C137.529 3.60469 137.279 3.00469 136.779 2.60469C136.312 2.17135 135.629 1.95469 134.729 1.95469C134.629 1.95469 134.579 1.85469 134.579 1.65469C134.579 1.45469 134.629 1.35469 134.729 1.35469L137.379 1.40469C138.912 1.47135 140.279 1.50469 141.479 1.50469C142.046 1.50469 142.729 1.47135 143.529 1.40469L145.379 1.35469Z" fill="#F2F2F2"/>
<path d="M150.158 1.35469C151.324 1.35469 152.224 1.80469 152.858 2.70469C153.524 3.60469 153.858 4.88802 153.858 6.55469C153.858 8.05469 153.524 9.45469 152.858 10.7547C152.191 12.0214 151.191 13.3047 149.858 14.6047C149.824 14.638 149.774 14.6547 149.708 14.6547C149.608 14.6547 149.524 14.6047 149.458 14.5047C149.391 14.4047 149.391 14.3214 149.458 14.2547C151.091 12.588 151.908 10.6214 151.908 8.35469C151.908 7.42136 151.741 6.73802 151.408 6.30469C151.108 6.80469 150.491 7.05469 149.558 7.05469C148.758 7.05469 148.108 6.80469 147.608 6.30469C147.141 5.77135 146.908 5.08802 146.908 4.25469C146.908 3.35469 147.191 2.65469 147.758 2.15469C148.358 1.62136 149.158 1.35469 150.158 1.35469Z" fill="#F2F2F2"/>
<path d="M163.259 6.40469C163.259 7.60469 163.559 8.67135 164.159 9.60469C164.792 10.538 165.559 11.3547 166.459 12.0547C167.359 12.7547 168.575 13.6047 170.109 14.6047C171.775 15.6714 173.109 16.6047 174.109 17.4047C175.109 18.2047 175.959 19.188 176.659 20.3547C177.359 21.488 177.709 22.8047 177.709 24.3047C177.709 26.038 177.242 27.588 176.309 28.9547C175.375 30.288 174.075 31.338 172.409 32.1047C170.775 32.838 168.942 33.2047 166.909 33.2047C165.409 33.2047 163.842 33.0047 162.209 32.6047C160.575 32.1714 159.475 31.7047 158.909 31.2047C158.742 31.0714 158.609 30.9547 158.509 30.8547C158.442 30.7214 158.409 30.5214 158.409 30.2547L158.259 22.3047V22.2547C158.259 22.1214 158.342 22.0547 158.509 22.0547C158.675 22.0214 158.775 22.0714 158.809 22.2047C159.809 24.238 160.675 25.888 161.409 27.1547C162.175 28.4214 163.125 29.538 164.259 30.5047C165.425 31.4714 166.742 31.9547 168.209 31.9547C169.542 31.9547 170.642 31.6047 171.509 30.9047C172.375 30.1714 172.809 28.938 172.809 27.2047C172.809 25.738 172.475 24.4547 171.809 23.3547C171.175 22.2547 170.392 21.3214 169.459 20.5547C168.525 19.788 167.242 18.8714 165.609 17.8047C164.009 16.7714 162.759 15.888 161.859 15.1547C160.992 14.4214 160.242 13.538 159.609 12.5047C158.975 11.4714 158.659 10.2547 158.659 8.85469C158.659 7.08802 159.159 5.60469 160.159 4.40469C161.192 3.17136 162.509 2.27136 164.109 1.70469C165.709 1.10469 167.392 0.804688 169.159 0.804688C170.325 0.804688 171.509 0.921355 172.709 1.15469C173.909 1.35469 174.875 1.60469 175.609 1.90469C175.909 2.03802 176.109 2.18802 176.209 2.35469C176.309 2.48802 176.359 2.67136 176.359 2.90469V10.2547C176.359 10.3547 176.275 10.438 176.109 10.5047C175.942 10.538 175.842 10.5047 175.809 10.4047L175.409 9.45469C174.575 7.35469 173.592 5.57135 172.459 4.10469C171.359 2.63802 169.809 1.90469 167.809 1.90469C166.475 1.90469 165.375 2.28802 164.509 3.05469C163.675 3.82136 163.259 4.93802 163.259 6.40469Z" fill="#F2F2F2"/>
<path d="M228.61 32.0047C228.71 32.0047 228.76 32.1047 228.76 32.3047C228.76 32.5047 228.71 32.6047 228.61 32.6047C227.443 32.6047 226.51 32.588 225.81 32.5547L221.96 32.5047L217.46 32.5547C216.86 32.588 216.043 32.6047 215.01 32.6047C214.91 32.6047 214.86 32.5047 214.86 32.3047C214.86 32.1047 214.91 32.0047 215.01 32.0047C216.243 32.0047 217.143 31.9214 217.71 31.7547C218.276 31.588 218.66 31.2714 218.86 30.8047C219.06 30.338 219.16 29.588 219.16 28.5547V17.0547H203.01V28.5547C203.01 29.5547 203.11 30.3047 203.31 30.8047C203.51 31.2714 203.893 31.588 204.46 31.7547C205.026 31.9214 205.926 32.0047 207.16 32.0047C207.226 32.0047 207.26 32.1047 207.26 32.3047C207.26 32.5047 207.226 32.6047 207.16 32.6047C205.993 32.6047 205.06 32.588 204.36 32.5547L200.01 32.5047L196.26 32.5547C195.593 32.588 194.676 32.6047 193.51 32.6047C193.443 32.6047 193.41 32.5047 193.41 32.3047C193.41 32.1047 193.443 32.0047 193.51 32.0047C194.676 32.0047 195.526 31.9214 196.06 31.7547C196.593 31.588 196.96 31.2714 197.16 30.8047C197.36 30.3047 197.46 29.5547 197.46 28.5547V5.40469C197.46 4.40469 197.36 3.67136 197.16 3.20469C196.96 2.73802 196.593 2.42135 196.06 2.25469C195.56 2.05469 194.743 1.95469 193.61 1.95469C193.51 1.95469 193.46 1.85469 193.46 1.65469C193.46 1.45469 193.51 1.35469 193.61 1.35469L196.31 1.40469C197.843 1.47135 199.076 1.50469 200.01 1.50469C201.276 1.50469 202.743 1.47135 204.41 1.40469L207.16 1.35469C207.226 1.35469 207.26 1.45469 207.26 1.65469C207.26 1.85469 207.226 1.95469 207.16 1.95469C205.96 1.95469 205.076 2.05469 204.51 2.25469C203.943 2.45469 203.543 2.80469 203.31 3.30469C203.11 3.77135 203.01 4.50469 203.01 5.50469V15.6547H219.16V5.50469C219.16 4.50469 219.06 3.77135 218.86 3.30469C218.66 2.80469 218.276 2.45469 217.71 2.25469C217.143 2.05469 216.243 1.95469 215.01 1.95469C214.91 1.95469 214.86 1.85469 214.86 1.65469C214.86 1.45469 214.91 1.35469 215.01 1.35469L217.46 1.40469C219.126 1.47135 220.626 1.50469 221.96 1.50469C222.86 1.50469 224.143 1.47135 225.81 1.40469L228.61 1.35469C228.71 1.35469 228.76 1.45469 228.76 1.65469C228.76 1.85469 228.71 1.95469 228.61 1.95469C227.476 1.95469 226.626 2.05469 226.06 2.25469C225.526 2.42135 225.16 2.73802 224.96 3.20469C224.793 3.67136 224.71 4.40469 224.71 5.40469V28.5547C224.71 29.5547 224.793 30.3047 224.96 30.8047C225.16 31.2714 225.526 31.588 226.06 31.7547C226.593 31.9214 227.443 32.0047 228.61 32.0047Z" fill="#F2F2F2"/>
<path d="M248.493 33.2047C245.393 33.2047 242.627 32.488 240.193 31.0547C237.793 29.588 235.927 27.6214 234.593 25.1547C233.293 22.6547 232.643 19.938 232.643 17.0047C232.643 13.5714 233.51 10.638 235.243 8.20469C236.977 5.73802 239.193 3.88802 241.893 2.65469C244.627 1.42135 247.41 0.804688 250.243 0.804688C253.41 0.804688 256.193 1.55469 258.593 3.05469C260.993 4.52135 262.827 6.47135 264.093 8.90469C265.393 11.338 266.043 13.9214 266.043 16.6547C266.043 19.688 265.243 22.4714 263.643 25.0047C262.043 27.538 259.893 29.538 257.193 31.0047C254.527 32.4714 251.627 33.2047 248.493 33.2047ZM250.143 31.9547C252.01 31.9547 253.677 31.4214 255.143 30.3547C256.643 29.2547 257.81 27.6714 258.643 25.6047C259.477 23.5047 259.893 21.0047 259.893 18.1047C259.893 15.038 259.427 12.3047 258.493 9.90469C257.56 7.47135 256.21 5.57136 254.443 4.20469C252.677 2.83802 250.61 2.15469 248.243 2.15469C245.21 2.15469 242.877 3.30469 241.243 5.60469C239.61 7.87135 238.793 11.0547 238.793 15.1547C238.793 18.388 239.277 21.288 240.243 23.8547C241.243 26.388 242.593 28.3714 244.293 29.8047C246.027 31.238 247.977 31.9547 250.143 31.9547Z" fill="#F2F2F2"/>
<path d="M310.125 32.0047C310.191 32.0047 310.225 32.1047 310.225 32.3047C310.225 32.5047 310.191 32.6047 310.125 32.6047C308.991 32.6047 308.091 32.588 307.425 32.5547L303.725 32.5047L299.975 32.5547C299.341 32.588 298.475 32.6047 297.375 32.6047C297.275 32.6047 297.225 32.5047 297.225 32.3047C297.225 32.1047 297.275 32.0047 297.375 32.0047C298.775 32.0047 299.725 31.838 300.225 31.5047C300.725 31.1714 300.975 30.4714 300.975 29.4047L300.925 28.5547L299.875 8.10469L289.575 32.2547C289.508 32.388 289.375 32.4547 289.175 32.4547C288.975 32.4547 288.841 32.388 288.775 32.2547L276.125 8.20469L275.725 26.2547C275.691 28.0547 276.041 29.4714 276.775 30.5047C277.541 31.5047 278.608 32.0047 279.975 32.0047C280.075 32.0047 280.125 32.1047 280.125 32.3047C280.125 32.5047 280.075 32.6047 279.975 32.6047C279.075 32.6047 278.375 32.588 277.875 32.5547L275.125 32.5047L271.975 32.5547C271.441 32.588 270.725 32.6047 269.825 32.6047C269.725 32.6047 269.675 32.5047 269.675 32.3047C269.675 32.1047 269.725 32.0047 269.825 32.0047C271.191 32.0047 272.275 31.488 273.075 30.4547C273.875 29.4214 274.291 28.0214 274.325 26.2547L274.775 5.55469L274.725 5.50469C274.058 4.27135 273.358 3.37135 272.625 2.80469C271.925 2.23802 271.108 1.95469 270.175 1.95469C270.075 1.95469 270.025 1.85469 270.025 1.65469C270.025 1.45469 270.075 1.35469 270.175 1.35469L272.525 1.40469C272.991 1.43802 273.591 1.45469 274.325 1.45469L276.975 1.40469C277.275 1.37136 277.658 1.35469 278.125 1.35469C278.558 1.35469 278.891 1.50469 279.125 1.80469C279.358 2.10469 279.791 2.82135 280.425 3.95469L291.325 24.4047L300.825 2.60469C301.025 2.13802 301.225 1.82135 301.425 1.65469C301.658 1.45469 301.958 1.35469 302.325 1.35469C302.625 1.35469 302.958 1.37136 303.325 1.40469C303.725 1.43802 304.175 1.45469 304.675 1.45469L307.625 1.40469C308.091 1.37136 308.758 1.35469 309.625 1.35469C309.725 1.35469 309.775 1.45469 309.775 1.65469C309.775 1.85469 309.725 1.95469 309.625 1.95469C308.058 1.95469 306.925 2.27135 306.225 2.90469C305.525 3.53802 305.208 4.52135 305.275 5.85469L306.475 28.5547C306.541 29.588 306.658 30.338 306.825 30.8047C307.025 31.2714 307.358 31.588 307.825 31.7547C308.325 31.9214 309.091 32.0047 310.125 32.0047Z" fill="#F2F2F2"/>
<path d="M336.146 24.6547C336.146 24.588 336.212 24.5547 336.346 24.5547C336.446 24.5547 336.529 24.588 336.596 24.6547C336.696 24.688 336.746 24.7214 336.746 24.7547C336.412 27.3547 336.246 29.7214 336.246 31.8547C336.246 32.1214 336.196 32.3214 336.096 32.4547C335.996 32.5547 335.796 32.6047 335.496 32.6047H313.396C313.296 32.6047 313.246 32.5047 313.246 32.3047C313.246 32.1047 313.296 32.0047 313.396 32.0047C314.462 32.0047 315.229 31.9214 315.696 31.7547C316.196 31.588 316.529 31.2714 316.696 30.8047C316.862 30.3047 316.946 29.5547 316.946 28.5547V5.40469C316.946 4.40469 316.862 3.67136 316.696 3.20469C316.529 2.73802 316.196 2.42135 315.696 2.25469C315.196 2.05469 314.429 1.95469 313.396 1.95469C313.296 1.95469 313.246 1.85469 313.246 1.65469C313.246 1.45469 313.296 1.35469 313.396 1.35469H334.596C334.929 1.35469 335.096 1.50469 335.096 1.80469L335.196 8.45469C335.196 8.52135 335.096 8.57135 334.896 8.60469C334.729 8.63802 334.629 8.60469 334.596 8.50469C334.062 6.57135 333.162 5.13802 331.896 4.20469C330.629 3.27136 328.962 2.80469 326.896 2.80469H325.396C324.396 2.80469 323.662 3.02136 323.196 3.45469C322.729 3.88802 322.496 4.55469 322.496 5.45469V15.6547H326.646C328.579 15.6547 330.062 15.3214 331.096 14.6547C332.129 13.988 332.646 13.0547 332.646 11.8547C332.646 11.7547 332.729 11.7047 332.896 11.7047C333.096 11.7047 333.196 11.7547 333.196 11.8547L333.146 16.3547L333.196 18.7547C333.262 19.888 333.296 20.788 333.296 21.4547C333.296 21.5214 333.196 21.5547 332.996 21.5547C332.796 21.5547 332.696 21.5214 332.696 21.4547C332.696 20.088 332.162 19.0214 331.096 18.2547C330.062 17.4547 328.562 17.0547 326.596 17.0547H322.496V28.3547C322.496 29.3214 322.679 30.038 323.046 30.5047C323.412 30.9714 323.996 31.2047 324.796 31.2047H326.446C329.046 31.2047 331.129 30.6714 332.696 29.6047C334.262 28.538 335.412 26.888 336.146 24.6547Z" fill="#F2F2F2"/>
<path d="M347.634 6.40469C347.634 7.60469 347.934 8.67135 348.534 9.60469C349.167 10.538 349.934 11.3547 350.834 12.0547C351.734 12.7547 352.95 13.6047 354.484 14.6047C356.15 15.6714 357.484 16.6047 358.484 17.4047C359.484 18.2047 360.334 19.188 361.034 20.3547C361.734 21.488 362.084 22.8047 362.084 24.3047C362.084 26.038 361.617 27.588 360.684 28.9547C359.75 30.288 358.45 31.338 356.784 32.1047C355.15 32.838 353.317 33.2047 351.284 33.2047C349.784 33.2047 348.217 33.0047 346.584 32.6047C344.95 32.1714 343.85 31.7047 343.284 31.2047C343.117 31.0714 342.984 30.9547 342.884 30.8547C342.817 30.7214 342.784 30.5214 342.784 30.2547L342.634 22.3047V22.2547C342.634 22.1214 342.717 22.0547 342.884 22.0547C343.05 22.0214 343.15 22.0714 343.184 22.2047C344.184 24.238 345.05 25.888 345.784 27.1547C346.55 28.4214 347.5 29.538 348.634 30.5047C349.8 31.4714 351.117 31.9547 352.584 31.9547C353.917 31.9547 355.017 31.6047 355.884 30.9047C356.75 30.1714 357.184 28.938 357.184 27.2047C357.184 25.738 356.85 24.4547 356.184 23.3547C355.55 22.2547 354.767 21.3214 353.834 20.5547C352.9 19.788 351.617 18.8714 349.984 17.8047C348.384 16.7714 347.134 15.888 346.234 15.1547C345.367 14.4214 344.617 13.538 343.984 12.5047C343.35 11.4714 343.034 10.2547 343.034 8.85469C343.034 7.08802 343.534 5.60469 344.534 4.40469C345.567 3.17136 346.884 2.27136 348.484 1.70469C350.084 1.10469 351.767 0.804688 353.534 0.804688C354.7 0.804688 355.884 0.921355 357.084 1.15469C358.284 1.35469 359.25 1.60469 359.984 1.90469C360.284 2.03802 360.484 2.18802 360.584 2.35469C360.684 2.48802 360.734 2.67136 360.734 2.90469V10.2547C360.734 10.3547 360.65 10.438 360.484 10.5047C360.317 10.538 360.217 10.5047 360.184 10.4047L359.784 9.45469C358.95 7.35469 357.967 5.57135 356.834 4.10469C355.734 2.63802 354.184 1.90469 352.184 1.90469C350.85 1.90469 349.75 2.28802 348.884 3.05469C348.05 3.82136 347.634 4.93802 347.634 6.40469Z" fill="#F2F2F2"/>
</svg>
